<?xml version="1.0" standalone="no"?>
<!DOCTYPE svg PUBLIC "-//W3C//DTD SVG 1.1//EN" "http://www.w3.org/Graphics/SVG/1.1/DTD/svg11.dtd" >
<svg xmlns="http://www.w3.org/2000/svg" xmlns:xlink="http://www.w3.org/1999/xlink" version="1.1">
<metadata>
Created by FontForge 20170924 at Thu Jun 23 08:58:57 2005
 By www-data
</metadata>
<defs>
<font id="REZ" horiz-adv-x="500" >
  <font-face 
    font-family="REZ"
    font-weight="400"
    font-stretch="normal"
    units-per-em="1000"
    panose-1="0 0 0 0 0 0 0 0 0 0"
    ascent="800"
    descent="-200"
    x-height="448"
    cap-height="450"
    bbox="-180 -225 810 630"
    underline-thickness="50"
    underline-position="-100"
    unicode-range="U+0005-2122"
  />
<missing-glyph 
 />
    <glyph glyph-name=".notdef" 
 />
    <glyph glyph-name=".null" horiz-adv-x="0" 
 />
    <glyph glyph-name="nonmarkingreturn" 
 />
    <glyph glyph-name="space" unicode=" " 
 />
    <glyph glyph-name="C" unicode="C" horiz-adv-x="450" 
d="M66 384q33 33 74.5 49.5t84.5 16.5t84.5 -16.5t74.5 -49.5l31 -31l-62 -63l-32 31q-20 20 -45 30t-51 10t-51 -10t-45 -30q-20 -19 -30 -44t-10 -51t10 -51t30 -45q40 -40 96 -40q27 0 52 10t44 30l32 31l62 -63l-31 -31q-33 -33 -74.5 -49.5t-84.5 -16.5t-84.5 16.5
t-74.5 49.5t-49 74t-16 84.5t16 84.5t49 74z" />
    <glyph glyph-name="glyph5" 
d="M66 384q33 33 74.5 49.5t84.5 16.5t84.5 -16.5t74.5 -49.5l31 -31l-62 -63l-32 31q-20 20 -45 30t-51 10t-51 -10t-45 -30q-20 -19 -30 -44t-10 -51t10 -51t30 -45q40 -40 96 -40q27 0 52 10t44 30l32 31l62 -63l-31 -31q-33 -33 -74.5 -49.5t-84.5 -16.5t-84.5 16.5
t-74.5 49.5t-49 74t-16 84.5t16 84.5t49 74z" />
    <glyph glyph-name="D" unicode="D" horiz-adv-x="481" 
d="M450 630v-404q0 -46 -17.5 -87t-48 -72t-71.5 -48.5t-87 -17.5t-87 17.5t-72 48.5t-48.5 72t-17.5 87q0 47 17.5 87.5t48.5 71t72 48t87 17.5h135v180h89zM226 90q28 0 52.5 10.5t43 29t29 43.5t10.5 53v135h-135q-28 0 -53 -10.5t-43.5 -29t-29 -43t-10.5 -52.5
t10.5 -53t29 -43.5t43.5 -29t53 -10.5z" />
    <glyph glyph-name="glyph7" 
d="M450 630v-404q0 -46 -17.5 -87t-48 -72t-71.5 -48.5t-87 -17.5t-87 17.5t-72 48.5t-48.5 72t-17.5 87q0 47 17.5 87.5t48.5 71t72 48t87 17.5h135v180h89zM226 90q28 0 52.5 10.5t43 29t29 43.5t10.5 53v135h-135q-28 0 -53 -10.5t-43.5 -29t-29 -43t-10.5 -52.5
t10.5 -53t29 -43.5t43.5 -29t53 -10.5z" />
    <glyph glyph-name="E" unicode="E" horiz-adv-x="445" 
d="M352 159l63 -63l-31 -31q-32 -32 -73 -49t-86 -17t-86 17t-73 49q-33 33 -49 74.5t-16 84.5t16 84t49 74t74.5 49.5t84.5 16.5t84.5 -16.5t74.5 -49.5l31 -31l-249 -249q38 -19 80.5 -12.5t74.5 38.5zM129 320q-40 -40 -40 -96q0 -31 14 -59l36.5 36.5l52 52t53 52.5
t39.5 39q-38 19 -80.5 13t-74.5 -38z" />
    <glyph glyph-name="glyph9" 
d="M352 159l63 -63l-31 -31q-32 -32 -73 -49t-86 -17t-86 17t-73 49q-33 33 -49 74.5t-16 84.5t16 84t49 74t74.5 49.5t84.5 16.5t84.5 -16.5t74.5 -49.5l31 -31l-249 -249q38 -19 80.5 -12.5t74.5 38.5zM129 320q-40 -40 -40 -96q0 -31 14 -59l36.5 36.5l52 52t53 52.5
t39.5 39q-38 19 -80.5 13t-74.5 -38z" />
    <glyph glyph-name="F" unicode="F" horiz-adv-x="303" 
d="M226 541q-28 0 -53 -10.5t-43.5 -29t-29 -43t-10.5 -52.5v-46h180v-89h-180v-270h-89v405q0 47 17.5 87.5t48.5 71t72 48t87 17.5h44v-89h-44v0z" />
    <glyph glyph-name="G" unicode="G" horiz-adv-x="476" 
d="M224 450q47 0 87.5 -17.5t71 -48t48 -71t17.5 -87.5v-180q0 -47 -17.5 -87.5t-48 -71.5t-71 -48.5t-87.5 -17.5h-45v89h45q45 0 79.5 25.5t48.5 65.5h-128q-46 0 -87 17.5t-72 48.5t-48.5 72t-17.5 87q0 47 17.5 87.5t48.5 71t72 48t87 17.5zM88 226q0 -28 10.5 -53
t29 -43.5t43.5 -29t53 -10.5h136v136q0 28 -10.5 52.5t-29 43t-43.5 29t-53 10.5t-53 -10.5t-43.5 -29t-29 -43t-10.5 -52.5z" />
    <glyph glyph-name="H" unicode="H" horiz-adv-x="476" 
d="M225 450q47 0 87.5 -17.5t71.5 -48t48.5 -71t17.5 -87.5v-225h-89v225q0 28 -10.5 52.5t-29 43t-43.5 29t-53 10.5t-52.5 -10.5t-43 -29t-29 -43t-10.5 -52.5v-225h-89v629h89v-226q28 22 62.5 34t72.5 12z" />
    <glyph glyph-name="I" unicode="I" horiz-adv-x="118" 
d="M1 450h88v-449h-88v449v0z" />
    <glyph glyph-name="J" unicode="J" horiz-adv-x="154" 
d="M122 449v-404q0 -47 -17.5 -87.5t-48 -71.5t-71.5 -48.5t-87 -17.5h-45v89h45q28 0 53 10.5t43.5 29t29 43.5t10.5 53v404h88z" />
    <glyph glyph-name="K" unicode="K" horiz-adv-x="479" 
d="M449 406q0 -56 -24.5 -102.5t-66.5 -77.5q42 -31 66.5 -78t24.5 -102v-45h-89v45q0 28 -10.5 52.5t-29 43t-43 29t-52.5 10.5t-53 -10.5t-43.5 -29t-29 -43t-10.5 -52.5v-45h-89v45v584h89v-406q29 22 63.5 34t72.5 12q28 0 52.5 10.5t43 29t29 43.5t10.5 53v44h89v-44v0
z" />
    <glyph glyph-name="L" unicode="L" horiz-adv-x="123" 
d="M1 630h89v-629h-89v629v0z" />
    <glyph glyph-name="M" unicode="M" horiz-adv-x="840" 
d="M583 450q47 0 87.5 -17.5t71.5 -48t48.5 -71t17.5 -87.5v-225h-89v225q0 28 -10.5 52.5t-29 43t-43.5 29t-53 10.5t-52.5 -10.5t-43 -29t-29 -43t-10.5 -52.5v-225h-89v225q0 28 -10.5 52.5t-29 43t-43.5 29t-53 10.5t-52.5 -10.5t-43 -29t-29 -43t-10.5 -52.5v-225h-89
v225q0 47 17.5 87.5t48 71t71.5 48t87 17.5q56 0 102.5 -24.5t77.5 -66.5q31 42 78 66.5t102 24.5z" />
    <glyph glyph-name="N" unicode="N" horiz-adv-x="479" 
d="M0 225q0 47 17.5 87.5t48 71t71.5 48t87 17.5q47 0 87.5 -17.5t71.5 -48t48.5 -71t17.5 -87.5v-225h-89v225q0 28 -10.5 52.5t-29 43t-43.5 29t-53 10.5t-52.5 -10.5t-43 -29t-29 -43t-10.5 -52.5v-225h-89v225v0z" />
    <glyph glyph-name="O" unicode="O" horiz-adv-x="479" 
d="M0 224q0 47 17.5 87.5t48 71t71.5 48t87 17.5q47 0 87.5 -17.5t71.5 -48t48.5 -71t17.5 -87.5q0 -46 -17.5 -87t-48.5 -72t-71.5 -48.5t-87.5 -17.5q-46 0 -87 17.5t-71.5 48.5t-48 72t-17.5 87zM88 224q0 -28 10.5 -53t29 -43.5t43.5 -29t53 -10.5t53 10.5t43.5 29
t29 43.5t10.5 53t-10.5 52.5t-29 43t-43.5 29t-53 10.5t-53 -10.5t-43.5 -29t-29 -43t-10.5 -52.5z" />
    <glyph glyph-name="P" unicode="P" horiz-adv-x="479" 
d="M225 448q47 0 87.5 -17.5t71.5 -48t48.5 -71t17.5 -87.5q0 -46 -17.5 -87t-48.5 -72t-71.5 -48.5t-87.5 -17.5h-135v-180h-89v405q0 47 17.5 87.5t48 71t71.5 48t87 17.5zM225 88q28 0 53 10.5t43.5 29t29 43.5t10.5 53t-10.5 52.5t-29 43t-43.5 29t-53 10.5t-52.5 -10.5
t-43 -29t-29 -43t-10.5 -52.5v-136h135v0z" />
    <glyph glyph-name="Q" unicode="Q" horiz-adv-x="479" 
d="M225 448q47 0 87.5 -17.5t71.5 -48t48.5 -71t17.5 -87.5v-405h-89v180h-136q-46 0 -87 17.5t-71.5 48.5t-48 72t-17.5 87q0 47 17.5 87.5t48 71t71.5 48t87 17.5zM361 88v136q0 28 -10.5 52.5t-29 43t-43.5 29t-53 10.5t-52.5 -10.5t-43 -29t-29 -43t-10.5 -52.5
t10.5 -53t29 -43.5t43 -29t52.5 -10.5h136z" />
    <glyph glyph-name="R" unicode="R" horiz-adv-x="296" 
d="M270 450v-89h-45q-28 0 -52.5 -10.5t-43 -29t-29 -43t-10.5 -52.5v-225h-90v225q0 47 17.5 87.5t48.5 71t72 48t87 17.5h45z" />
    <glyph glyph-name="S" unicode="S" horiz-adv-x="476" 
d="M404 450v-89h-271q-19 0 -32 -13t-13 -32t13 -32.5t32 -13.5h180q28 0 52.5 -10.5t43 -28.5t29 -42.5t10.5 -52.5t-10.5 -52.5t-29 -43t-43 -29t-52.5 -10.5h-270v89h270q20 0 33 13t13 33q0 19 -13 32t-33 13h-180q-28 0 -52.5 10.5t-42.5 29t-28.5 43t-10.5 52.5
t10.5 52.5t28.5 42.5t42.5 28.5t52.5 10.5h271z" />
    <glyph glyph-name="T" unicode="T" horiz-adv-x="301" 
d="M269 90v-89h-44q-46 0 -87 17.5t-72 48.5t-48.5 72t-17.5 87v404h89v-270h180v-89h-180v-45q0 -28 10.5 -53t29 -43.5t43.5 -29t53 -10.5h44z" />
    <glyph glyph-name="U" unicode="U" horiz-adv-x="476" 
d="M450 450v-224q0 -46 -17.5 -87t-48.5 -72t-71.5 -48.5t-87.5 -17.5q-46 0 -87 17.5t-71.5 48.5t-48 72t-17.5 87v224h89v-224q0 -28 10.5 -53t29 -43.5t43 -29t52.5 -10.5t53 10.5t43.5 29t29 43.5t10.5 53v224h89z" />
    <glyph glyph-name="V" unicode="V" horiz-adv-x="496" 
d="M469 452l-234 -450l-233 450h100q14 -27 32 -61.5t36 -70t35.5 -68.5t29.5 -57q15 29 34.5 66.5t38.5 74.5t35 68.5t25 47.5h101z" />
    <glyph glyph-name="W" unicode="W" horiz-adv-x="842" 
d="M810 449v-224q0 -46 -17.5 -87t-48.5 -72t-71.5 -48.5t-87.5 -17.5q-55 0 -102 24.5t-78 66.5q-31 -42 -77.5 -66.5t-102.5 -24.5q-46 0 -87 17.5t-72 48.5t-48.5 72t-17.5 87v224h90v-224q0 -28 10.5 -53t29 -43.5t43 -29t52.5 -10.5t53 10.5t43.5 29t29 43.5t10.5 53
v224h89v-224q0 -28 10.5 -53t29 -43.5t43 -29t52.5 -10.5t53 10.5t43.5 29t29 43.5t10.5 53v224h89z" />
    <glyph glyph-name="X" unicode="X" horiz-adv-x="479" 
d="M405 360q-28 0 -53 -10.5t-43.5 -29t-29 -43t-10.5 -52.5t10.5 -53t29 -43.5t43.5 -29t53 -10.5h44v-89h-44q-56 0 -102.5 24.5t-77.5 66.5q-31 -42 -78 -66.5t-102 -24.5h-45v89h45q28 0 52.5 10.5t43 29t29 43.5t10.5 53t-10.5 52.5t-29 43t-43 29t-52.5 10.5h-45v89
h45q55 0 102 -24.5t78 -66.5q31 42 77.5 66.5t102.5 24.5h44v-89h-44v0z" />
    <glyph glyph-name="Y" unicode="Y" horiz-adv-x="479" 
d="M449 449v-404q0 -47 -17.5 -87.5t-48 -71.5t-71 -48.5t-87.5 -17.5h-45v89h45q28 0 52.5 10.5t43 29t29 43.5t10.5 53v1q-28 -22 -62.5 -34t-72.5 -12q-46 0 -87 17.5t-72 48.5t-48.5 72t-17.5 87v224h89v-224q0 -28 10.5 -53t29 -43.5t43.5 -29t53 -10.5t52.5 10.5
t43 29t29 43.5t10.5 53v224h89z" />
    <glyph glyph-name="Z" unicode="Z" horiz-adv-x="476" 
d="M440 449q-56 -76 -105 -146q-21 -30 -43 -60.5t-42 -59t-38 -53t-30 -41.5h267v-89h-441q55 76 105 146q21 30 43.5 60.5t42.5 59t38 53t30 41.5h-267v89h440z" />
    <glyph glyph-name="glyph31" 
d="M226 541q-28 0 -53 -10.5t-43.5 -29t-29 -43t-10.5 -52.5v-46h180v-89h-180v-270h-89v405q0 47 17.5 87.5t48.5 71t72 48t87 17.5h44v-89h-44v0z" />
    <glyph glyph-name="glyph32" 
d="M224 450q47 0 87.5 -17.5t71 -48t48 -71t17.5 -87.5v-180q0 -47 -17.5 -87.5t-48 -71.5t-71 -48.5t-87.5 -17.5h-45v89h45q45 0 79.5 25.5t48.5 65.5h-128q-46 0 -87 17.5t-72 48.5t-48.5 72t-17.5 87q0 47 17.5 87.5t48.5 71t72 48t87 17.5zM88 226q0 -28 10.5 -53
t29 -43.5t43.5 -29t53 -10.5h136v136q0 28 -10.5 52.5t-29 43t-43.5 29t-53 10.5t-53 -10.5t-43.5 -29t-29 -43t-10.5 -52.5z" />
    <glyph glyph-name="glyph33" 
d="M225 450q47 0 87.5 -17.5t71.5 -48t48.5 -71t17.5 -87.5v-225h-89v225q0 28 -10.5 52.5t-29 43t-43.5 29t-53 10.5t-52.5 -10.5t-43 -29t-29 -43t-10.5 -52.5v-225h-89v629h89v-226q28 22 62.5 34t72.5 12z" />
    <glyph glyph-name="glyph34" 
d="M1 450h88v-449h-88v449v0z" />
    <glyph glyph-name="glyph35" 
d="M89 404v-404q0 -47 -17.5 -87.5t-48 -71.5t-71.5 -48.5t-87 -17.5h-45v89h45q28 0 53 10.5t43.5 29t29 43.5t10.5 53v404h88z" />
    <glyph glyph-name="glyph36" 
d="M449 406q0 -56 -24.5 -102.5t-66.5 -77.5q42 -31 66.5 -78t24.5 -102v-45h-89v45q0 28 -10.5 52.5t-29 43t-43 29t-52.5 10.5t-53 -10.5t-43.5 -29t-29 -43t-10.5 -52.5v-45h-89v45v584h89v-406q29 22 63.5 34t72.5 12q28 0 52.5 10.5t43 29t29 43.5t10.5 53v44h89v-44v0
z" />
    <glyph glyph-name="glyph37" 
d="M1 630h89v-629h-89v629v0z" />
    <glyph glyph-name="glyph38" 
d="M583 450q47 0 87.5 -17.5t71.5 -48t48.5 -71t17.5 -87.5v-225h-89v225q0 28 -10.5 52.5t-29 43t-43.5 29t-53 10.5t-52.5 -10.5t-43 -29t-29 -43t-10.5 -52.5v-225h-89v225q0 28 -10.5 52.5t-29 43t-43.5 29t-53 10.5t-52.5 -10.5t-43 -29t-29 -43t-10.5 -52.5v-225h-89
v225q0 47 17.5 87.5t48 71t71.5 48t87 17.5q56 0 102.5 -24.5t77.5 -66.5q31 42 78 66.5t102 24.5z" />
    <glyph glyph-name="glyph39" 
d="M0 225q0 47 17.5 87.5t48 71t71.5 48t87 17.5q47 0 87.5 -17.5t71.5 -48t48.5 -71t17.5 -87.5v-225h-89v225q0 28 -10.5 52.5t-29 43t-43.5 29t-53 10.5t-52.5 -10.5t-43 -29t-29 -43t-10.5 -52.5v-225h-89v225v0z" />
    <glyph glyph-name="glyph40" 
d="M0 224q0 47 17.5 87.5t48 71t71.5 48t87 17.5q47 0 87.5 -17.5t71.5 -48t48.5 -71t17.5 -87.5q0 -46 -17.5 -87t-48.5 -72t-71.5 -48.5t-87.5 -17.5q-46 0 -87 17.5t-71.5 48.5t-48 72t-17.5 87zM88 224q0 -28 10.5 -53t29 -43.5t43.5 -29t53 -10.5t53 10.5t43.5 29
t29 43.5t10.5 53t-10.5 52.5t-29 43t-43.5 29t-53 10.5t-53 -10.5t-43.5 -29t-29 -43t-10.5 -52.5z" />
    <glyph glyph-name="glyph41" 
d="M225 448q47 0 87.5 -17.5t71.5 -48t48.5 -71t17.5 -87.5q0 -46 -17.5 -87t-48.5 -72t-71.5 -48.5t-87.5 -17.5h-135v-180h-89v405q0 47 17.5 87.5t48 71t71.5 48t87 17.5zM225 88q28 0 53 10.5t43.5 29t29 43.5t10.5 53t-10.5 52.5t-29 43t-43.5 29t-53 10.5t-52.5 -10.5
t-43 -29t-29 -43t-10.5 -52.5v-136h135v0z" />
    <glyph glyph-name="glyph42" 
d="M225 448q47 0 87.5 -17.5t71.5 -48t48.5 -71t17.5 -87.5v-405h-89v180h-136q-46 0 -87 17.5t-71.5 48.5t-48 72t-17.5 87q0 47 17.5 87.5t48 71t71.5 48t87 17.5zM361 88v136q0 28 -10.5 52.5t-29 43t-43.5 29t-53 10.5t-52.5 -10.5t-43 -29t-29 -43t-10.5 -52.5
t10.5 -53t29 -43.5t43 -29t52.5 -10.5h136z" />
    <glyph glyph-name="glyph43" 
d="M270 450v-89h-45q-28 0 -52.5 -10.5t-43 -29t-29 -43t-10.5 -52.5v-225h-90v225q0 47 17.5 87.5t48.5 71t72 48t87 17.5h45z" />
    <glyph glyph-name="glyph44" 
d="M404 450v-89h-271q-19 0 -32 -13t-13 -32t13 -32.5t32 -13.5h180q28 0 52.5 -10.5t43 -28.5t29 -42.5t10.5 -52.5t-10.5 -52.5t-29 -43t-43 -29t-52.5 -10.5h-270v89h270q20 0 33 13t13 33q0 19 -13 32t-33 13h-180q-28 0 -52.5 10.5t-42.5 29t-28.5 43t-10.5 52.5
t10.5 52.5t28.5 42.5t42.5 28.5t52.5 10.5h271z" />
    <glyph glyph-name="glyph45" 
d="M269 90v-89h-44q-46 0 -87 17.5t-72 48.5t-48.5 72t-17.5 87v404h89v-270h180v-89h-180v-45q0 -28 10.5 -53t29 -43.5t43.5 -29t53 -10.5h44z" />
    <glyph glyph-name="glyph46" 
d="M450 450v-224q0 -46 -17.5 -87t-48.5 -72t-71.5 -48.5t-87.5 -17.5q-46 0 -87 17.5t-71.5 48.5t-48 72t-17.5 87v224h89v-224q0 -28 10.5 -53t29 -43.5t43 -29t52.5 -10.5t53 10.5t43.5 29t29 43.5t10.5 53v224h89z" />
    <glyph glyph-name="glyph47" 
d="M469 452l-234 -450l-233 450h100q14 -27 32 -61.5t36 -70t35.5 -68.5t29.5 -57q15 29 34.5 66.5t38.5 74.5t35 68.5t25 47.5h101z" />
    <glyph glyph-name="glyph48" 
d="M810 449v-224q0 -46 -17.5 -87t-48.5 -72t-71.5 -48.5t-87.5 -17.5q-55 0 -102 24.5t-78 66.5q-31 -42 -77.5 -66.5t-102.5 -24.5q-46 0 -87 17.5t-72 48.5t-48.5 72t-17.5 87v224h90v-224q0 -28 10.5 -53t29 -43.5t43 -29t52.5 -10.5t53 10.5t43.5 29t29 43.5t10.5 53
v224h89v-224q0 -28 10.5 -53t29 -43.5t43 -29t52.5 -10.5t53 10.5t43.5 29t29 43.5t10.5 53v224h89z" />
    <glyph glyph-name="glyph49" 
d="M405 360q-28 0 -53 -10.5t-43.5 -29t-29 -43t-10.5 -52.5t10.5 -53t29 -43.5t43.5 -29t53 -10.5h44v-89h-44q-56 0 -102.5 24.5t-77.5 66.5q-31 -42 -78 -66.5t-102 -24.5h-45v89h45q28 0 52.5 10.5t43 29t29 43.5t10.5 53t-10.5 52.5t-29 43t-43 29t-52.5 10.5h-45v89
h45q55 0 102 -24.5t78 -66.5q31 42 77.5 66.5t102.5 24.5h44v-89h-44v0z" />
    <glyph glyph-name="glyph50" 
d="M449 449v-404q0 -47 -17.5 -87.5t-48 -71.5t-71 -48.5t-87.5 -17.5h-45v89h45q28 0 52.5 10.5t43 29t29 43.5t10.5 53v1q-28 -22 -62.5 -34t-72.5 -12q-46 0 -87 17.5t-72 48.5t-48.5 72t-17.5 87v224h89v-224q0 -28 10.5 -53t29 -43.5t43.5 -29t53 -10.5t52.5 10.5
t43 29t29 43.5t10.5 53v224h89z" />
    <glyph glyph-name="glyph51" 
d="M440 449q-56 -76 -105 -146q-21 -30 -43 -60.5t-42 -59t-38 -53t-30 -41.5h267v-89h-441q55 76 105 146q21 30 43.5 60.5t42.5 59t38 53t30 41.5h-267v89h440z" />
    <glyph glyph-name="A" unicode="A" horiz-adv-x="474" 
d="M224 450q47 0 87.5 -17.5t71 -48t48 -71t17.5 -87.5v-225h-224q-46 0 -87 17.5t-72 48.5t-48.5 72t-17.5 87q0 47 17.5 87.5t48.5 71t72 48t87 17.5zM359 90v136q0 28 -10.5 52.5t-29 43t-43 29t-52.5 10.5t-53 -10.5t-43.5 -29t-29 -43t-10.5 -52.5t10.5 -53t29 -43.5
t43.5 -29t53 -10.5h135z" />
    <glyph glyph-name="B" unicode="B" horiz-adv-x="476" 
d="M225 448q47 0 87.5 -17.5t71 -48t48 -71t17.5 -87.5q0 -46 -17.5 -87t-48 -72t-71 -48.5t-87.5 -17.5q-46 0 -87 17.5t-72 48.5t-48.5 72t-17.5 87v404h89v-180h136v0zM225 88q28 0 52.5 10.5t43 29t29 43.5t10.5 53t-10.5 52.5t-29 43t-43 29t-52.5 10.5h-136v-135
q0 -28 10.5 -53t29 -43.5t43.5 -29t53 -10.5z" />
    <glyph glyph-name="glyph54" horiz-adv-x="476" 
d="M224 450q47 0 87.5 -17.5t71 -48t48 -71t17.5 -87.5v-225h-224q-46 0 -87 17.5t-72 48.5t-48.5 72t-17.5 87q0 47 17.5 87.5t48.5 71t72 48t87 17.5zM359 90v136q0 28 -10.5 52.5t-29 43t-43 29t-52.5 10.5t-53 -10.5t-43.5 -29t-29 -43t-10.5 -52.5t10.5 -53t29 -43.5
t43.5 -29t53 -10.5h135z" />
    <glyph glyph-name="glyph55" horiz-adv-x="474" 
d="M225 448q47 0 87.5 -17.5t71 -48t48 -71t17.5 -87.5q0 -46 -17.5 -87t-48 -72t-71 -48.5t-87.5 -17.5q-46 0 -87 17.5t-72 48.5t-48.5 72t-17.5 87v404h89v-180h136v0zM225 88q28 0 52.5 10.5t43 29t29 43.5t10.5 53t-10.5 52.5t-29 43t-43 29t-52.5 10.5h-136v-135
q0 -28 10.5 -53t29 -43.5t43.5 -29t53 -10.5z" />
    <glyph glyph-name="a" unicode="a" horiz-adv-x="474" 
d="M224 450q47 0 87.5 -17.5t71 -48t48 -71t17.5 -87.5v-225h-224q-46 0 -87 17.5t-72 48.5t-48.5 72t-17.5 87q0 47 17.5 87.5t48.5 71t72 48t87 17.5zM359 90v136q0 28 -10.5 52.5t-29 43t-43 29t-52.5 10.5t-53 -10.5t-43.5 -29t-29 -43t-10.5 -52.5t10.5 -53t29 -43.5
t43.5 -29t53 -10.5h135z" />
    <glyph glyph-name="b" unicode="b" horiz-adv-x="476" 
d="M225 448q47 0 87.5 -17.5t71 -48t48 -71t17.5 -87.5q0 -46 -17.5 -87t-48 -72t-71 -48.5t-87.5 -17.5q-46 0 -87 17.5t-72 48.5t-48.5 72t-17.5 87v404h89v-180h136v0zM225 88q28 0 52.5 10.5t43 29t29 43.5t10.5 53t-10.5 52.5t-29 43t-43 29t-52.5 10.5h-136v-135
q0 -28 10.5 -53t29 -43.5t43.5 -29t53 -10.5z" />
    <glyph glyph-name="c" unicode="c" horiz-adv-x="450" 
d="M66 384q33 33 74.5 49.5t84.5 16.5t84.5 -16.5t74.5 -49.5l31 -31l-62 -63l-32 31q-20 20 -45 30t-51 10t-51 -10t-45 -30q-20 -19 -30 -44t-10 -51t10 -51t30 -45q40 -40 96 -40q27 0 52 10t44 30l32 31l62 -63l-31 -31q-33 -33 -74.5 -49.5t-84.5 -16.5t-84.5 16.5
t-74.5 49.5t-49 74t-16 84.5t16 84.5t49 74z" />
    <glyph glyph-name="d" unicode="d" horiz-adv-x="481" 
d="M450 630v-404q0 -46 -17.5 -87t-48 -72t-71.5 -48.5t-87 -17.5t-87 17.5t-72 48.5t-48.5 72t-17.5 87q0 47 17.5 87.5t48.5 71t72 48t87 17.5h135v180h89zM226 90q28 0 52.5 10.5t43 29t29 43.5t10.5 53v135h-135q-28 0 -53 -10.5t-43.5 -29t-29 -43t-10.5 -52.5
t10.5 -53t29 -43.5t43.5 -29t53 -10.5z" />
    <glyph glyph-name="e" unicode="e" horiz-adv-x="445" 
d="M352 159l63 -63l-31 -31q-32 -32 -73 -49t-86 -17t-86 17t-73 49q-33 33 -49 74.5t-16 84.5t16 84t49 74t74.5 49.5t84.5 16.5t84.5 -16.5t74.5 -49.5l31 -31l-249 -249q38 -19 80.5 -12.5t74.5 38.5zM129 320q-40 -40 -40 -96q0 -31 14 -59l36.5 36.5l52 52t53 52.5
t39.5 39q-38 19 -80.5 13t-74.5 -38z" />
    <glyph glyph-name="f" unicode="f" horiz-adv-x="303" 
d="M226 541q-28 0 -53 -10.5t-43.5 -29t-29 -43t-10.5 -52.5v-46h180v-89h-180v-270h-89v405q0 47 17.5 87.5t48.5 71t72 48t87 17.5h44v-89h-44v0z" />
    <glyph glyph-name="g" unicode="g" horiz-adv-x="476" 
d="M224 450q47 0 87.5 -17.5t71 -48t48 -71t17.5 -87.5v-180q0 -47 -17.5 -87.5t-48 -71.5t-71 -48.5t-87.5 -17.5h-45v89h45q45 0 79.5 25.5t48.5 65.5h-128q-46 0 -87 17.5t-72 48.5t-48.5 72t-17.5 87q0 47 17.5 87.5t48.5 71t72 48t87 17.5zM88 226q0 -28 10.5 -53
t29 -43.5t43.5 -29t53 -10.5h136v136q0 28 -10.5 52.5t-29 43t-43.5 29t-53 10.5t-53 -10.5t-43.5 -29t-29 -43t-10.5 -52.5z" />
    <glyph glyph-name="h" unicode="h" horiz-adv-x="476" 
d="M225 450q47 0 87.5 -17.5t71.5 -48t48.5 -71t17.5 -87.5v-225h-89v225q0 28 -10.5 52.5t-29 43t-43.5 29t-53 10.5t-52.5 -10.5t-43 -29t-29 -43t-10.5 -52.5v-225h-89v629h89v-226q28 22 62.5 34t72.5 12z" />
    <glyph glyph-name="glyph64" horiz-adv-x="118" 
d="M1 450h88v-449h-88v449v0z" />
    <glyph glyph-name="j" unicode="j" horiz-adv-x="120" 
d="M89 404v-404q0 -47 -17.5 -87.5t-48 -71.5t-71.5 -48.5t-87 -17.5h-45v89h45q28 0 53 10.5t43.5 29t29 43.5t10.5 53v404h88z" />
    <glyph glyph-name="i" unicode="i" horiz-adv-x="118" 
d="M1 450h88v-449h-88v449v0z" />
    <glyph glyph-name="k" unicode="k" horiz-adv-x="479" 
d="M449 406q0 -56 -24.5 -102.5t-66.5 -77.5q42 -31 66.5 -78t24.5 -102v-45h-89v45q0 28 -10.5 52.5t-29 43t-43 29t-52.5 10.5t-53 -10.5t-43.5 -29t-29 -43t-10.5 -52.5v-45h-89v45v584h89v-406q29 22 63.5 34t72.5 12q28 0 52.5 10.5t43 29t29 43.5t10.5 53v44h89v-44v0
z" />
    <glyph glyph-name="l" unicode="l" horiz-adv-x="123" 
d="M1 630h89v-629h-89v629v0z" />
    <glyph glyph-name="m" unicode="m" horiz-adv-x="840" 
d="M583 450q47 0 87.5 -17.5t71.5 -48t48.5 -71t17.5 -87.5v-225h-89v225q0 28 -10.5 52.5t-29 43t-43.5 29t-53 10.5t-52.5 -10.5t-43 -29t-29 -43t-10.5 -52.5v-225h-89v225q0 28 -10.5 52.5t-29 43t-43.5 29t-53 10.5t-52.5 -10.5t-43 -29t-29 -43t-10.5 -52.5v-225h-89
v225q0 47 17.5 87.5t48 71t71.5 48t87 17.5q56 0 102.5 -24.5t77.5 -66.5q31 42 78 66.5t102 24.5z" />
    <glyph glyph-name="n" unicode="n" horiz-adv-x="479" 
d="M0 225q0 47 17.5 87.5t48 71t71.5 48t87 17.5q47 0 87.5 -17.5t71.5 -48t48.5 -71t17.5 -87.5v-225h-89v225q0 28 -10.5 52.5t-29 43t-43.5 29t-53 10.5t-52.5 -10.5t-43 -29t-29 -43t-10.5 -52.5v-225h-89v225v0z" />
    <glyph glyph-name="o" unicode="o" horiz-adv-x="479" 
d="M0 224q0 47 17.5 87.5t48 71t71.5 48t87 17.5q47 0 87.5 -17.5t71.5 -48t48.5 -71t17.5 -87.5q0 -46 -17.5 -87t-48.5 -72t-71.5 -48.5t-87.5 -17.5q-46 0 -87 17.5t-71.5 48.5t-48 72t-17.5 87zM88 224q0 -28 10.5 -53t29 -43.5t43.5 -29t53 -10.5t53 10.5t43.5 29
t29 43.5t10.5 53t-10.5 52.5t-29 43t-43.5 29t-53 10.5t-53 -10.5t-43.5 -29t-29 -43t-10.5 -52.5z" />
    <glyph glyph-name="p" unicode="p" horiz-adv-x="479" 
d="M225 448q47 0 87.5 -17.5t71.5 -48t48.5 -71t17.5 -87.5q0 -46 -17.5 -87t-48.5 -72t-71.5 -48.5t-87.5 -17.5h-135v-180h-89v405q0 47 17.5 87.5t48 71t71.5 48t87 17.5zM225 88q28 0 53 10.5t43.5 29t29 43.5t10.5 53t-10.5 52.5t-29 43t-43.5 29t-53 10.5t-52.5 -10.5
t-43 -29t-29 -43t-10.5 -52.5v-136h135v0z" />
    <glyph glyph-name="q" unicode="q" horiz-adv-x="479" 
d="M225 448q47 0 87.5 -17.5t71.5 -48t48.5 -71t17.5 -87.5v-405h-89v180h-136q-46 0 -87 17.5t-71.5 48.5t-48 72t-17.5 87q0 47 17.5 87.5t48 71t71.5 48t87 17.5zM361 88v136q0 28 -10.5 52.5t-29 43t-43.5 29t-53 10.5t-52.5 -10.5t-43 -29t-29 -43t-10.5 -52.5
t10.5 -53t29 -43.5t43 -29t52.5 -10.5h136z" />
    <glyph glyph-name="r" unicode="r" horiz-adv-x="296" 
d="M270 450v-89h-45q-28 0 -52.5 -10.5t-43 -29t-29 -43t-10.5 -52.5v-225h-90v225q0 47 17.5 87.5t48.5 71t72 48t87 17.5h45z" />
    <glyph glyph-name="s" unicode="s" horiz-adv-x="476" 
d="M404 450v-89h-271q-19 0 -32 -13t-13 -32t13 -32.5t32 -13.5h180q28 0 52.5 -10.5t43 -28.5t29 -42.5t10.5 -52.5t-10.5 -52.5t-29 -43t-43 -29t-52.5 -10.5h-270v89h270q20 0 33 13t13 33q0 19 -13 32t-33 13h-180q-28 0 -52.5 10.5t-42.5 29t-28.5 43t-10.5 52.5
t10.5 52.5t28.5 42.5t42.5 28.5t52.5 10.5h271z" />
    <glyph glyph-name="t" unicode="t" horiz-adv-x="301" 
d="M269 90v-89h-44q-46 0 -87 17.5t-72 48.5t-48.5 72t-17.5 87v404h89v-270h180v-89h-180v-45q0 -28 10.5 -53t29 -43.5t43.5 -29t53 -10.5h44z" />
    <glyph glyph-name="u" unicode="u" horiz-adv-x="476" 
d="M450 450v-224q0 -46 -17.5 -87t-48.5 -72t-71.5 -48.5t-87.5 -17.5q-46 0 -87 17.5t-71.5 48.5t-48 72t-17.5 87v224h89v-224q0 -28 10.5 -53t29 -43.5t43 -29t52.5 -10.5t53 10.5t43.5 29t29 43.5t10.5 53v224h89z" />
    <glyph glyph-name="v" unicode="v" horiz-adv-x="496" 
d="M469 452l-234 -450l-233 450h100q14 -27 32 -61.5t36 -70t35.5 -68.5t29.5 -57q15 29 34.5 66.5t38.5 74.5t35 68.5t25 47.5h101z" />
    <glyph glyph-name="w" unicode="w" horiz-adv-x="842" 
d="M810 449v-224q0 -46 -17.5 -87t-48.5 -72t-71.5 -48.5t-87.5 -17.5q-55 0 -102 24.5t-78 66.5q-31 -42 -77.5 -66.5t-102.5 -24.5q-46 0 -87 17.5t-72 48.5t-48.5 72t-17.5 87v224h90v-224q0 -28 10.5 -53t29 -43.5t43 -29t52.5 -10.5t53 10.5t43.5 29t29 43.5t10.5 53
v224h89v-224q0 -28 10.5 -53t29 -43.5t43 -29t52.5 -10.5t53 10.5t43.5 29t29 43.5t10.5 53v224h89z" />
    <glyph glyph-name="x" unicode="x" horiz-adv-x="479" 
d="M405 360q-28 0 -53 -10.5t-43.5 -29t-29 -43t-10.5 -52.5t10.5 -53t29 -43.5t43.5 -29t53 -10.5h44v-89h-44q-56 0 -102.5 24.5t-77.5 66.5q-31 -42 -78 -66.5t-102 -24.5h-45v89h45q28 0 52.5 10.5t43 29t29 43.5t10.5 53t-10.5 52.5t-29 43t-43 29t-52.5 10.5h-45v89
h45q55 0 102 -24.5t78 -66.5q31 42 77.5 66.5t102.5 24.5h44v-89h-44v0z" />
    <glyph glyph-name="y" unicode="y" horiz-adv-x="479" 
d="M449 449v-404q0 -47 -17.5 -87.5t-48 -71.5t-71 -48.5t-87.5 -17.5h-45v89h45q28 0 52.5 10.5t43 29t29 43.5t10.5 53v1q-28 -22 -62.5 -34t-72.5 -12q-46 0 -87 17.5t-72 48.5t-48.5 72t-17.5 87v224h89v-224q0 -28 10.5 -53t29 -43.5t43.5 -29t53 -10.5t52.5 10.5
t43 29t29 43.5t10.5 53v224h89z" />
    <glyph glyph-name="z" unicode="z" horiz-adv-x="476" 
d="M440 449q-56 -76 -105 -146q-21 -30 -43 -60.5t-42 -59t-38 -53t-30 -41.5h267v-89h-441q55 76 105 146q21 30 43.5 60.5t42.5 59t38 53t30 41.5h-267v89h440z" />
    <glyph glyph-name="breve" 
d="M191 288q14 14 34 14t34 -14t14 -33.5t-14 -33.5t-34 -14t-34 14l-33 34zM181 211q14 -14 14 -34t-14 -34t-33.5 -14t-33.5 14t-14 34t14 34l33 33zM112 301q-14 14 -14 33.5t14 33.5t33.5 14t33.5 -14t14 -33.5t-14 -33.5l-33 -34zM101 223q-14 -14 -33.5 -14t-33.5 14
t-14 33.5t14 33.5t33.5 14t33.5 -14l34 -34z" />
    <glyph glyph-name="dotaccent" 
d="M191 288q14 14 34 14t34 -14t14 -33.5t-14 -33.5t-34 -14t-34 14l-33 34zM181 211q14 -14 14 -34t-14 -34t-33.5 -14t-33.5 14t-14 34t14 34l33 33zM112 301q-14 14 -14 33.5t14 33.5t33.5 14t33.5 -14t14 -33.5t-14 -33.5l-33 -34zM101 223q-14 -14 -33.5 -14t-33.5 14
t-14 33.5t14 33.5t33.5 14t33.5 -14l34 -34z" />
    <glyph glyph-name="ring" 
d="M191 288q14 14 34 14t34 -14t14 -33.5t-14 -33.5t-34 -14t-34 14l-33 34zM181 211q14 -14 14 -34t-14 -34t-33.5 -14t-33.5 14t-14 34t14 34l33 33zM112 301q-14 14 -14 33.5t14 33.5t33.5 14t33.5 -14t14 -33.5t-14 -33.5l-33 -34zM101 223q-14 -14 -33.5 -14t-33.5 14
t-14 33.5t14 33.5t33.5 14t33.5 -14l34 -34z" />
    <glyph glyph-name="hungarumlaut" unicode="&#xa;" 
d="M191 288q14 14 34 14t34 -14t14 -33.5t-14 -33.5t-34 -14t-34 14l-33 34zM181 211q14 -14 14 -34t-14 -34t-33.5 -14t-33.5 14t-14 34t14 34l33 33zM112 301q-14 14 -14 33.5t14 33.5t33.5 14t33.5 -14t14 -33.5t-14 -33.5l-33 -34zM101 223q-14 -14 -33.5 -14t-33.5 14
t-14 33.5t14 33.5t33.5 14t33.5 -14l34 -34z" />
    <glyph glyph-name="ogonek" 
d="M191 288q14 14 34 14t34 -14t14 -33.5t-14 -33.5t-34 -14t-34 14l-33 34zM181 211q14 -14 14 -34t-14 -34t-33.5 -14t-33.5 14t-14 34t14 34l33 33zM112 301q-14 14 -14 33.5t14 33.5t33.5 14t33.5 -14t14 -33.5t-14 -33.5l-33 -34zM101 223q-14 -14 -33.5 -14t-33.5 14
t-14 33.5t14 33.5t33.5 14t33.5 -14l34 -34z" />
    <glyph glyph-name="caron" 
d="M191 288q14 14 34 14t34 -14t14 -33.5t-14 -33.5t-34 -14t-34 14l-33 34zM181 211q14 -14 14 -34t-14 -34t-33.5 -14t-33.5 14t-14 34t14 34l33 33zM112 301q-14 14 -14 33.5t14 33.5t33.5 14t33.5 -14t14 -33.5t-14 -33.5l-33 -34zM101 223q-14 -14 -33.5 -14t-33.5 14
t-14 33.5t14 33.5t33.5 14t33.5 -14l34 -34z" />
    <glyph glyph-name="dotlessi" unicode="&#xd;" 
d="M191 288q14 14 34 14t34 -14t14 -33.5t-14 -33.5t-34 -14t-34 14l-33 34zM181 211q14 -14 14 -34t-14 -34t-33.5 -14t-33.5 14t-14 34t14 34l33 33zM112 301q-14 14 -14 33.5t14 33.5t33.5 14t33.5 -14t14 -33.5t-14 -33.5l-33 -34zM101 223q-14 -14 -33.5 -14t-33.5 14
t-14 33.5t14 33.5t33.5 14t33.5 -14l34 -34z" />
    <glyph glyph-name="fraction" 
d="M191 288q14 14 34 14t34 -14t14 -33.5t-14 -33.5t-34 -14t-34 14l-33 34zM181 211q14 -14 14 -34t-14 -34t-33.5 -14t-33.5 14t-14 34t14 34l33 33zM112 301q-14 14 -14 33.5t14 33.5t33.5 14t33.5 -14t14 -33.5t-14 -33.5l-33 -34zM101 223q-14 -14 -33.5 -14t-33.5 14
t-14 33.5t14 33.5t33.5 14t33.5 -14l34 -34z" />
    <glyph glyph-name="fi" 
d="M191 288q14 14 34 14t34 -14t14 -33.5t-14 -33.5t-34 -14t-34 14l-33 34zM181 211q14 -14 14 -34t-14 -34t-33.5 -14t-33.5 14t-14 34t14 34l33 33zM112 301q-14 14 -14 33.5t14 33.5t33.5 14t33.5 -14t14 -33.5t-14 -33.5l-33 -34zM101 223q-14 -14 -33.5 -14t-33.5 14
t-14 33.5t14 33.5t33.5 14t33.5 -14l34 -34z" />
    <glyph glyph-name="fl" 
d="M191 288q14 14 34 14t34 -14t14 -33.5t-14 -33.5t-34 -14t-34 14l-33 34zM181 211q14 -14 14 -34t-14 -34t-33.5 -14t-33.5 14t-14 34t14 34l33 33zM112 301q-14 14 -14 33.5t14 33.5t33.5 14t33.5 -14t14 -33.5t-14 -33.5l-33 -34zM101 223q-14 -14 -33.5 -14t-33.5 14
t-14 33.5t14 33.5t33.5 14t33.5 -14l34 -34z" />
    <glyph glyph-name="Lslash" 
d="M191 288q14 14 34 14t34 -14t14 -33.5t-14 -33.5t-34 -14t-34 14l-33 34zM181 211q14 -14 14 -34t-14 -34t-33.5 -14t-33.5 14t-14 34t14 34l33 33zM112 301q-14 14 -14 33.5t14 33.5t33.5 14t33.5 -14t14 -33.5t-14 -33.5l-33 -34zM101 223q-14 -14 -33.5 -14t-33.5 14
t-14 33.5t14 33.5t33.5 14t33.5 -14l34 -34z" />
    <glyph glyph-name="lslash" 
d="M191 288q14 14 34 14t34 -14t14 -33.5t-14 -33.5t-34 -14t-34 14l-33 34zM181 211q14 -14 14 -34t-14 -34t-33.5 -14t-33.5 14t-14 34t14 34l33 33zM112 301q-14 14 -14 33.5t14 33.5t33.5 14t33.5 -14t14 -33.5t-14 -33.5l-33 -34zM101 223q-14 -14 -33.5 -14t-33.5 14
t-14 33.5t14 33.5t33.5 14t33.5 -14l34 -34z" />
    <glyph glyph-name="Zcaron" 
d="M191 288q14 14 34 14t34 -14t14 -33.5t-14 -33.5t-34 -14t-34 14l-33 34zM181 211q14 -14 14 -34t-14 -34t-33.5 -14t-33.5 14t-14 34t14 34l33 33zM112 301q-14 14 -14 33.5t14 33.5t33.5 14t33.5 -14t14 -33.5t-14 -33.5l-33 -34zM101 223q-14 -14 -33.5 -14t-33.5 14
t-14 33.5t14 33.5t33.5 14t33.5 -14l34 -34z" />
    <glyph glyph-name="zcaron" 
d="M191 288q14 14 34 14t34 -14t14 -33.5t-14 -33.5t-34 -14t-34 14l-33 34zM181 211q14 -14 14 -34t-14 -34t-33.5 -14t-33.5 14t-14 34t14 34l33 33zM112 301q-14 14 -14 33.5t14 33.5t33.5 14t33.5 -14t14 -33.5t-14 -33.5l-33 -34zM101 223q-14 -14 -33.5 -14t-33.5 14
t-14 33.5t14 33.5t33.5 14t33.5 -14l34 -34z" />
    <glyph glyph-name="exclam" unicode="!" 
d="M191 288q14 14 34 14t34 -14t14 -33.5t-14 -33.5t-34 -14t-34 14l-33 34zM181 211q14 -14 14 -34t-14 -34t-33.5 -14t-33.5 14t-14 34t14 34l33 33zM112 301q-14 14 -14 33.5t14 33.5t33.5 14t33.5 -14t14 -33.5t-14 -33.5l-33 -34zM101 223q-14 -14 -33.5 -14t-33.5 14
t-14 33.5t14 33.5t33.5 14t33.5 -14l34 -34z" />
    <glyph glyph-name="quotedbl" unicode="&#x22;" 
d="M191 288q14 14 34 14t34 -14t14 -33.5t-14 -33.5t-34 -14t-34 14l-33 34zM181 211q14 -14 14 -34t-14 -34t-33.5 -14t-33.5 14t-14 34t14 34l33 33zM112 301q-14 14 -14 33.5t14 33.5t33.5 14t33.5 -14t14 -33.5t-14 -33.5l-33 -34zM101 223q-14 -14 -33.5 -14t-33.5 14
t-14 33.5t14 33.5t33.5 14t33.5 -14l34 -34z" />
    <glyph glyph-name="numbersign" unicode="#" 
d="M191 288q14 14 34 14t34 -14t14 -33.5t-14 -33.5t-34 -14t-34 14l-33 34zM181 211q14 -14 14 -34t-14 -34t-33.5 -14t-33.5 14t-14 34t14 34l33 33zM112 301q-14 14 -14 33.5t14 33.5t33.5 14t33.5 -14t14 -33.5t-14 -33.5l-33 -34zM101 223q-14 -14 -33.5 -14t-33.5 14
t-14 33.5t14 33.5t33.5 14t33.5 -14l34 -34z" />
    <glyph glyph-name="dollar" unicode="$" 
d="M191 288q14 14 34 14t34 -14t14 -33.5t-14 -33.5t-34 -14t-34 14l-33 34zM181 211q14 -14 14 -34t-14 -34t-33.5 -14t-33.5 14t-14 34t14 34l33 33zM112 301q-14 14 -14 33.5t14 33.5t33.5 14t33.5 -14t14 -33.5t-14 -33.5l-33 -34zM101 223q-14 -14 -33.5 -14t-33.5 14
t-14 33.5t14 33.5t33.5 14t33.5 -14l34 -34z" />
    <glyph glyph-name="percent" unicode="%" 
d="M191 288q14 14 34 14t34 -14t14 -33.5t-14 -33.5t-34 -14t-34 14l-33 34zM181 211q14 -14 14 -34t-14 -34t-33.5 -14t-33.5 14t-14 34t14 34l33 33zM112 301q-14 14 -14 33.5t14 33.5t33.5 14t33.5 -14t14 -33.5t-14 -33.5l-33 -34zM101 223q-14 -14 -33.5 -14t-33.5 14
t-14 33.5t14 33.5t33.5 14t33.5 -14l34 -34z" />
    <glyph glyph-name="ampersand" unicode="&#x26;" 
d="M191 288q14 14 34 14t34 -14t14 -33.5t-14 -33.5t-34 -14t-34 14l-33 34zM181 211q14 -14 14 -34t-14 -34t-33.5 -14t-33.5 14t-14 34t14 34l33 33zM112 301q-14 14 -14 33.5t14 33.5t33.5 14t33.5 -14t14 -33.5t-14 -33.5l-33 -34zM101 223q-14 -14 -33.5 -14t-33.5 14
t-14 33.5t14 33.5t33.5 14t33.5 -14l34 -34z" />
    <glyph glyph-name="quotesingle" unicode="'" 
d="M191 288q14 14 34 14t34 -14t14 -33.5t-14 -33.5t-34 -14t-34 14l-33 34zM181 211q14 -14 14 -34t-14 -34t-33.5 -14t-33.5 14t-14 34t14 34l33 33zM112 301q-14 14 -14 33.5t14 33.5t33.5 14t33.5 -14t14 -33.5t-14 -33.5l-33 -34zM101 223q-14 -14 -33.5 -14t-33.5 14
t-14 33.5t14 33.5t33.5 14t33.5 -14l34 -34z" />
    <glyph glyph-name="parenleft" unicode="(" 
d="M191 288q14 14 34 14t34 -14t14 -33.5t-14 -33.5t-34 -14t-34 14l-33 34zM181 211q14 -14 14 -34t-14 -34t-33.5 -14t-33.5 14t-14 34t14 34l33 33zM112 301q-14 14 -14 33.5t14 33.5t33.5 14t33.5 -14t14 -33.5t-14 -33.5l-33 -34zM101 223q-14 -14 -33.5 -14t-33.5 14
t-14 33.5t14 33.5t33.5 14t33.5 -14l34 -34z" />
    <glyph glyph-name="parenright" unicode=")" 
d="M191 288q14 14 34 14t34 -14t14 -33.5t-14 -33.5t-34 -14t-34 14l-33 34zM181 211q14 -14 14 -34t-14 -34t-33.5 -14t-33.5 14t-14 34t14 34l33 33zM112 301q-14 14 -14 33.5t14 33.5t33.5 14t33.5 -14t14 -33.5t-14 -33.5l-33 -34zM101 223q-14 -14 -33.5 -14t-33.5 14
t-14 33.5t14 33.5t33.5 14t33.5 -14l34 -34z" />
    <glyph glyph-name="asterisk" unicode="*" 
d="M191 288q14 14 34 14t34 -14t14 -33.5t-14 -33.5t-34 -14t-34 14l-33 34zM181 211q14 -14 14 -34t-14 -34t-33.5 -14t-33.5 14t-14 34t14 34l33 33zM112 301q-14 14 -14 33.5t14 33.5t33.5 14t33.5 -14t14 -33.5t-14 -33.5l-33 -34zM101 223q-14 -14 -33.5 -14t-33.5 14
t-14 33.5t14 33.5t33.5 14t33.5 -14l34 -34z" />
    <glyph glyph-name="plus" unicode="+" 
d="M191 288q14 14 34 14t34 -14t14 -33.5t-14 -33.5t-34 -14t-34 14l-33 34zM181 211q14 -14 14 -34t-14 -34t-33.5 -14t-33.5 14t-14 34t14 34l33 33zM112 301q-14 14 -14 33.5t14 33.5t33.5 14t33.5 -14t14 -33.5t-14 -33.5l-33 -34zM101 223q-14 -14 -33.5 -14t-33.5 14
t-14 33.5t14 33.5t33.5 14t33.5 -14l34 -34z" />
    <glyph glyph-name="at" unicode="@" 
d="M191 288q14 14 34 14t34 -14t14 -33.5t-14 -33.5t-34 -14t-34 14l-33 34zM181 211q14 -14 14 -34t-14 -34t-33.5 -14t-33.5 14t-14 34t14 34l33 33zM112 301q-14 14 -14 33.5t14 33.5t33.5 14t33.5 -14t14 -33.5t-14 -33.5l-33 -34zM101 223q-14 -14 -33.5 -14t-33.5 14
t-14 33.5t14 33.5t33.5 14t33.5 -14l34 -34z" />
    <glyph glyph-name="question" unicode="?" 
d="M191 288q14 14 34 14t34 -14t14 -33.5t-14 -33.5t-34 -14t-34 14l-33 34zM181 211q14 -14 14 -34t-14 -34t-33.5 -14t-33.5 14t-14 34t14 34l33 33zM112 301q-14 14 -14 33.5t14 33.5t33.5 14t33.5 -14t14 -33.5t-14 -33.5l-33 -34zM101 223q-14 -14 -33.5 -14t-33.5 14
t-14 33.5t14 33.5t33.5 14t33.5 -14l34 -34z" />
    <glyph glyph-name="greater" unicode="&#x3e;" 
d="M191 288q14 14 34 14t34 -14t14 -33.5t-14 -33.5t-34 -14t-34 14l-33 34zM181 211q14 -14 14 -34t-14 -34t-33.5 -14t-33.5 14t-14 34t14 34l33 33zM112 301q-14 14 -14 33.5t14 33.5t33.5 14t33.5 -14t14 -33.5t-14 -33.5l-33 -34zM101 223q-14 -14 -33.5 -14t-33.5 14
t-14 33.5t14 33.5t33.5 14t33.5 -14l34 -34z" />
    <glyph glyph-name="equal" unicode="=" 
d="M191 288q14 14 34 14t34 -14t14 -33.5t-14 -33.5t-34 -14t-34 14l-33 34zM181 211q14 -14 14 -34t-14 -34t-33.5 -14t-33.5 14t-14 34t14 34l33 33zM112 301q-14 14 -14 33.5t14 33.5t33.5 14t33.5 -14t14 -33.5t-14 -33.5l-33 -34zM101 223q-14 -14 -33.5 -14t-33.5 14
t-14 33.5t14 33.5t33.5 14t33.5 -14l34 -34z" />
    <glyph glyph-name="less" unicode="&#x3c;" 
d="M191 288q14 14 34 14t34 -14t14 -33.5t-14 -33.5t-34 -14t-34 14l-33 34zM181 211q14 -14 14 -34t-14 -34t-33.5 -14t-33.5 14t-14 34t14 34l33 33zM112 301q-14 14 -14 33.5t14 33.5t33.5 14t33.5 -14t14 -33.5t-14 -33.5l-33 -34zM101 223q-14 -14 -33.5 -14t-33.5 14
t-14 33.5t14 33.5t33.5 14t33.5 -14l34 -34z" />
    <glyph glyph-name="semicolon" unicode=";" 
d="M191 288q14 14 34 14t34 -14t14 -33.5t-14 -33.5t-34 -14t-34 14l-33 34zM181 211q14 -14 14 -34t-14 -34t-33.5 -14t-33.5 14t-14 34t14 34l33 33zM112 301q-14 14 -14 33.5t14 33.5t33.5 14t33.5 -14t14 -33.5t-14 -33.5l-33 -34zM101 223q-14 -14 -33.5 -14t-33.5 14
t-14 33.5t14 33.5t33.5 14t33.5 -14l34 -34z" />
    <glyph glyph-name="colon" unicode=":" 
d="M191 288q14 14 34 14t34 -14t14 -33.5t-14 -33.5t-34 -14t-34 14l-33 34zM181 211q14 -14 14 -34t-14 -34t-33.5 -14t-33.5 14t-14 34t14 34l33 33zM112 301q-14 14 -14 33.5t14 33.5t33.5 14t33.5 -14t14 -33.5t-14 -33.5l-33 -34zM101 223q-14 -14 -33.5 -14t-33.5 14
t-14 33.5t14 33.5t33.5 14t33.5 -14l34 -34z" />
    <glyph glyph-name="nine" unicode="9" 
d="M191 288q14 14 34 14t34 -14t14 -33.5t-14 -33.5t-34 -14t-34 14l-33 34zM181 211q14 -14 14 -34t-14 -34t-33.5 -14t-33.5 14t-14 34t14 34l33 33zM112 301q-14 14 -14 33.5t14 33.5t33.5 14t33.5 -14t14 -33.5t-14 -33.5l-33 -34zM101 223q-14 -14 -33.5 -14t-33.5 14
t-14 33.5t14 33.5t33.5 14t33.5 -14l34 -34z" />
    <glyph glyph-name="eight" unicode="8" 
d="M191 288q14 14 34 14t34 -14t14 -33.5t-14 -33.5t-34 -14t-34 14l-33 34zM181 211q14 -14 14 -34t-14 -34t-33.5 -14t-33.5 14t-14 34t14 34l33 33zM112 301q-14 14 -14 33.5t14 33.5t33.5 14t33.5 -14t14 -33.5t-14 -33.5l-33 -34zM101 223q-14 -14 -33.5 -14t-33.5 14
t-14 33.5t14 33.5t33.5 14t33.5 -14l34 -34z" />
    <glyph glyph-name="seven" unicode="7" 
d="M191 288q14 14 34 14t34 -14t14 -33.5t-14 -33.5t-34 -14t-34 14l-33 34zM181 211q14 -14 14 -34t-14 -34t-33.5 -14t-33.5 14t-14 34t14 34l33 33zM112 301q-14 14 -14 33.5t14 33.5t33.5 14t33.5 -14t14 -33.5t-14 -33.5l-33 -34zM101 223q-14 -14 -33.5 -14t-33.5 14
t-14 33.5t14 33.5t33.5 14t33.5 -14l34 -34z" />
    <glyph glyph-name="six" unicode="6" 
d="M191 288q14 14 34 14t34 -14t14 -33.5t-14 -33.5t-34 -14t-34 14l-33 34zM181 211q14 -14 14 -34t-14 -34t-33.5 -14t-33.5 14t-14 34t14 34l33 33zM112 301q-14 14 -14 33.5t14 33.5t33.5 14t33.5 -14t14 -33.5t-14 -33.5l-33 -34zM101 223q-14 -14 -33.5 -14t-33.5 14
t-14 33.5t14 33.5t33.5 14t33.5 -14l34 -34z" />
    <glyph glyph-name="five" unicode="5" 
d="M191 288q14 14 34 14t34 -14t14 -33.5t-14 -33.5t-34 -14t-34 14l-33 34zM181 211q14 -14 14 -34t-14 -34t-33.5 -14t-33.5 14t-14 34t14 34l33 33zM112 301q-14 14 -14 33.5t14 33.5t33.5 14t33.5 -14t14 -33.5t-14 -33.5l-33 -34zM101 223q-14 -14 -33.5 -14t-33.5 14
t-14 33.5t14 33.5t33.5 14t33.5 -14l34 -34z" />
    <glyph glyph-name="four" unicode="4" 
d="M191 288q14 14 34 14t34 -14t14 -33.5t-14 -33.5t-34 -14t-34 14l-33 34zM181 211q14 -14 14 -34t-14 -34t-33.5 -14t-33.5 14t-14 34t14 34l33 33zM112 301q-14 14 -14 33.5t14 33.5t33.5 14t33.5 -14t14 -33.5t-14 -33.5l-33 -34zM101 223q-14 -14 -33.5 -14t-33.5 14
t-14 33.5t14 33.5t33.5 14t33.5 -14l34 -34z" />
    <glyph glyph-name="three" unicode="3" 
d="M191 288q14 14 34 14t34 -14t14 -33.5t-14 -33.5t-34 -14t-34 14l-33 34zM181 211q14 -14 14 -34t-14 -34t-33.5 -14t-33.5 14t-14 34t14 34l33 33zM112 301q-14 14 -14 33.5t14 33.5t33.5 14t33.5 -14t14 -33.5t-14 -33.5l-33 -34zM101 223q-14 -14 -33.5 -14t-33.5 14
t-14 33.5t14 33.5t33.5 14t33.5 -14l34 -34z" />
    <glyph glyph-name="two" unicode="2" 
d="M191 288q14 14 34 14t34 -14t14 -33.5t-14 -33.5t-34 -14t-34 14l-33 34zM181 211q14 -14 14 -34t-14 -34t-33.5 -14t-33.5 14t-14 34t14 34l33 33zM112 301q-14 14 -14 33.5t14 33.5t33.5 14t33.5 -14t14 -33.5t-14 -33.5l-33 -34zM101 223q-14 -14 -33.5 -14t-33.5 14
t-14 33.5t14 33.5t33.5 14t33.5 -14l34 -34z" />
    <glyph glyph-name="one" unicode="1" 
d="M191 288q14 14 34 14t34 -14t14 -33.5t-14 -33.5t-34 -14t-34 14l-33 34zM181 211q14 -14 14 -34t-14 -34t-33.5 -14t-33.5 14t-14 34t14 34l33 33zM112 301q-14 14 -14 33.5t14 33.5t33.5 14t33.5 -14t14 -33.5t-14 -33.5l-33 -34zM101 223q-14 -14 -33.5 -14t-33.5 14
t-14 33.5t14 33.5t33.5 14t33.5 -14l34 -34z" />
    <glyph glyph-name="zero" unicode="0" 
d="M191 288q14 14 34 14t34 -14t14 -33.5t-14 -33.5t-34 -14t-34 14l-33 34zM181 211q14 -14 14 -34t-14 -34t-33.5 -14t-33.5 14t-14 34t14 34l33 33zM112 301q-14 14 -14 33.5t14 33.5t33.5 14t33.5 -14t14 -33.5t-14 -33.5l-33 -34zM101 223q-14 -14 -33.5 -14t-33.5 14
t-14 33.5t14 33.5t33.5 14t33.5 -14l34 -34z" />
    <glyph glyph-name="slash" unicode="/" 
d="M191 288q14 14 34 14t34 -14t14 -33.5t-14 -33.5t-34 -14t-34 14l-33 34zM181 211q14 -14 14 -34t-14 -34t-33.5 -14t-33.5 14t-14 34t14 34l33 33zM112 301q-14 14 -14 33.5t14 33.5t33.5 14t33.5 -14t14 -33.5t-14 -33.5l-33 -34zM101 223q-14 -14 -33.5 -14t-33.5 14
t-14 33.5t14 33.5t33.5 14t33.5 -14l34 -34z" />
    <glyph glyph-name="period" unicode="." 
d="M191 288q14 14 34 14t34 -14t14 -33.5t-14 -33.5t-34 -14t-34 14l-33 34zM181 211q14 -14 14 -34t-14 -34t-33.5 -14t-33.5 14t-14 34t14 34l33 33zM112 301q-14 14 -14 33.5t14 33.5t33.5 14t33.5 -14t14 -33.5t-14 -33.5l-33 -34zM101 223q-14 -14 -33.5 -14t-33.5 14
t-14 33.5t14 33.5t33.5 14t33.5 -14l34 -34z" />
    <glyph glyph-name="hyphen" unicode="-" 
d="M191 288q14 14 34 14t34 -14t14 -33.5t-14 -33.5t-34 -14t-34 14l-33 34zM181 211q14 -14 14 -34t-14 -34t-33.5 -14t-33.5 14t-14 34t14 34l33 33zM112 301q-14 14 -14 33.5t14 33.5t33.5 14t33.5 -14t14 -33.5t-14 -33.5l-33 -34zM101 223q-14 -14 -33.5 -14t-33.5 14
t-14 33.5t14 33.5t33.5 14t33.5 -14l34 -34z" />
    <glyph glyph-name="comma" unicode="," 
d="M191 288q14 14 34 14t34 -14t14 -33.5t-14 -33.5t-34 -14t-34 14l-33 34zM181 211q14 -14 14 -34t-14 -34t-33.5 -14t-33.5 14t-14 34t14 34l33 33zM112 301q-14 14 -14 33.5t14 33.5t33.5 14t33.5 -14t14 -33.5t-14 -33.5l-33 -34zM101 223q-14 -14 -33.5 -14t-33.5 14
t-14 33.5t14 33.5t33.5 14t33.5 -14l34 -34z" />
    <glyph glyph-name="bracketleft" unicode="[" 
d="M191 288q14 14 34 14t34 -14t14 -33.5t-14 -33.5t-34 -14t-34 14l-33 34zM181 211q14 -14 14 -34t-14 -34t-33.5 -14t-33.5 14t-14 34t14 34l33 33zM112 301q-14 14 -14 33.5t14 33.5t33.5 14t33.5 -14t14 -33.5t-14 -33.5l-33 -34zM101 223q-14 -14 -33.5 -14t-33.5 14
t-14 33.5t14 33.5t33.5 14t33.5 -14l34 -34z" />
    <glyph glyph-name="backslash" unicode="\" 
d="M191 288q14 14 34 14t34 -14t14 -33.5t-14 -33.5t-34 -14t-34 14l-33 34zM181 211q14 -14 14 -34t-14 -34t-33.5 -14t-33.5 14t-14 34t14 34l33 33zM112 301q-14 14 -14 33.5t14 33.5t33.5 14t33.5 -14t14 -33.5t-14 -33.5l-33 -34zM101 223q-14 -14 -33.5 -14t-33.5 14
t-14 33.5t14 33.5t33.5 14t33.5 -14l34 -34z" />
    <glyph glyph-name="bracketright" unicode="]" 
d="M191 288q14 14 34 14t34 -14t14 -33.5t-14 -33.5t-34 -14t-34 14l-33 34zM181 211q14 -14 14 -34t-14 -34t-33.5 -14t-33.5 14t-14 34t14 34l33 33zM112 301q-14 14 -14 33.5t14 33.5t33.5 14t33.5 -14t14 -33.5t-14 -33.5l-33 -34zM101 223q-14 -14 -33.5 -14t-33.5 14
t-14 33.5t14 33.5t33.5 14t33.5 -14l34 -34z" />
    <glyph glyph-name="asciicircum" unicode="^" 
d="M191 288q14 14 34 14t34 -14t14 -33.5t-14 -33.5t-34 -14t-34 14l-33 34zM181 211q14 -14 14 -34t-14 -34t-33.5 -14t-33.5 14t-14 34t14 34l33 33zM112 301q-14 14 -14 33.5t14 33.5t33.5 14t33.5 -14t14 -33.5t-14 -33.5l-33 -34zM101 223q-14 -14 -33.5 -14t-33.5 14
t-14 33.5t14 33.5t33.5 14t33.5 -14l34 -34z" />
    <glyph glyph-name="underscore" unicode="_" 
d="M191 288q14 14 34 14t34 -14t14 -33.5t-14 -33.5t-34 -14t-34 14l-33 34zM181 211q14 -14 14 -34t-14 -34t-33.5 -14t-33.5 14t-14 34t14 34l33 33zM112 301q-14 14 -14 33.5t14 33.5t33.5 14t33.5 -14t14 -33.5t-14 -33.5l-33 -34zM101 223q-14 -14 -33.5 -14t-33.5 14
t-14 33.5t14 33.5t33.5 14t33.5 -14l34 -34z" />
    <glyph glyph-name="grave" unicode="`" 
d="M191 288q14 14 34 14t34 -14t14 -33.5t-14 -33.5t-34 -14t-34 14l-33 34zM181 211q14 -14 14 -34t-14 -34t-33.5 -14t-33.5 14t-14 34t14 34l33 33zM112 301q-14 14 -14 33.5t14 33.5t33.5 14t33.5 -14t14 -33.5t-14 -33.5l-33 -34zM101 223q-14 -14 -33.5 -14t-33.5 14
t-14 33.5t14 33.5t33.5 14t33.5 -14l34 -34z" />
    <glyph glyph-name="braceleft" unicode="{" 
d="M191 288q14 14 34 14t34 -14t14 -33.5t-14 -33.5t-34 -14t-34 14l-33 34zM181 211q14 -14 14 -34t-14 -34t-33.5 -14t-33.5 14t-14 34t14 34l33 33zM112 301q-14 14 -14 33.5t14 33.5t33.5 14t33.5 -14t14 -33.5t-14 -33.5l-33 -34zM101 223q-14 -14 -33.5 -14t-33.5 14
t-14 33.5t14 33.5t33.5 14t33.5 -14l34 -34z" />
    <glyph glyph-name="bar" unicode="|" 
d="M191 288q14 14 34 14t34 -14t14 -33.5t-14 -33.5t-34 -14t-34 14l-33 34zM181 211q14 -14 14 -34t-14 -34t-33.5 -14t-33.5 14t-14 34t14 34l33 33zM112 301q-14 14 -14 33.5t14 33.5t33.5 14t33.5 -14t14 -33.5t-14 -33.5l-33 -34zM101 223q-14 -14 -33.5 -14t-33.5 14
t-14 33.5t14 33.5t33.5 14t33.5 -14l34 -34z" />
    <glyph glyph-name="braceright" unicode="}" 
d="M191 288q14 14 34 14t34 -14t14 -33.5t-14 -33.5t-34 -14t-34 14l-33 34zM181 211q14 -14 14 -34t-14 -34t-33.5 -14t-33.5 14t-14 34t14 34l33 33zM112 301q-14 14 -14 33.5t14 33.5t33.5 14t33.5 -14t14 -33.5t-14 -33.5l-33 -34zM101 223q-14 -14 -33.5 -14t-33.5 14
t-14 33.5t14 33.5t33.5 14t33.5 -14l34 -34z" />
    <glyph glyph-name="asciitilde" unicode="~" 
d="M191 288q14 14 34 14t34 -14t14 -33.5t-14 -33.5t-34 -14t-34 14l-33 34zM181 211q14 -14 14 -34t-14 -34t-33.5 -14t-33.5 14t-14 34t14 34l33 33zM112 301q-14 14 -14 33.5t14 33.5t33.5 14t33.5 -14t14 -33.5t-14 -33.5l-33 -34zM101 223q-14 -14 -33.5 -14t-33.5 14
t-14 33.5t14 33.5t33.5 14t33.5 -14l34 -34z" />
    <glyph glyph-name="Euro" unicode="&#x20ac;" 
d="M191 288q14 14 34 14t34 -14t14 -33.5t-14 -33.5t-34 -14t-34 14l-33 34zM181 211q14 -14 14 -34t-14 -34t-33.5 -14t-33.5 14t-14 34t14 34l33 33zM112 301q-14 14 -14 33.5t14 33.5t33.5 14t33.5 -14t14 -33.5t-14 -33.5l-33 -34zM101 223q-14 -14 -33.5 -14t-33.5 14
t-14 33.5t14 33.5t33.5 14t33.5 -14l34 -34z" />
    <glyph glyph-name="quotesinglbase" unicode="&#x201a;" 
d="M191 288q14 14 34 14t34 -14t14 -33.5t-14 -33.5t-34 -14t-34 14l-33 34zM181 211q14 -14 14 -34t-14 -34t-33.5 -14t-33.5 14t-14 34t14 34l33 33zM112 301q-14 14 -14 33.5t14 33.5t33.5 14t33.5 -14t14 -33.5t-14 -33.5l-33 -34zM101 223q-14 -14 -33.5 -14t-33.5 14
t-14 33.5t14 33.5t33.5 14t33.5 -14l34 -34z" />
    <glyph glyph-name="florin" unicode="&#x192;" 
d="M191 288q14 14 34 14t34 -14t14 -33.5t-14 -33.5t-34 -14t-34 14l-33 34zM181 211q14 -14 14 -34t-14 -34t-33.5 -14t-33.5 14t-14 34t14 34l33 33zM112 301q-14 14 -14 33.5t14 33.5t33.5 14t33.5 -14t14 -33.5t-14 -33.5l-33 -34zM101 223q-14 -14 -33.5 -14t-33.5 14
t-14 33.5t14 33.5t33.5 14t33.5 -14l34 -34z" />
    <glyph glyph-name="trademark" unicode="&#x2122;" 
d="M191 288q14 14 34 14t34 -14t14 -33.5t-14 -33.5t-34 -14t-34 14l-33 34zM181 211q14 -14 14 -34t-14 -34t-33.5 -14t-33.5 14t-14 34t14 34l33 33zM112 301q-14 14 -14 33.5t14 33.5t33.5 14t33.5 -14t14 -33.5t-14 -33.5l-33 -34zM101 223q-14 -14 -33.5 -14t-33.5 14
t-14 33.5t14 33.5t33.5 14t33.5 -14l34 -34z" />
    <glyph glyph-name="tilde" unicode="&#x2dc;" 
d="M191 288q14 14 34 14t34 -14t14 -33.5t-14 -33.5t-34 -14t-34 14l-33 34zM181 211q14 -14 14 -34t-14 -34t-33.5 -14t-33.5 14t-14 34t14 34l33 33zM112 301q-14 14 -14 33.5t14 33.5t33.5 14t33.5 -14t14 -33.5t-14 -33.5l-33 -34zM101 223q-14 -14 -33.5 -14t-33.5 14
t-14 33.5t14 33.5t33.5 14t33.5 -14l34 -34z" />
    <glyph glyph-name="emdash" unicode="&#x2014;" 
d="M191 288q14 14 34 14t34 -14t14 -33.5t-14 -33.5t-34 -14t-34 14l-33 34zM181 211q14 -14 14 -34t-14 -34t-33.5 -14t-33.5 14t-14 34t14 34l33 33zM112 301q-14 14 -14 33.5t14 33.5t33.5 14t33.5 -14t14 -33.5t-14 -33.5l-33 -34zM101 223q-14 -14 -33.5 -14t-33.5 14
t-14 33.5t14 33.5t33.5 14t33.5 -14l34 -34z" />
    <glyph glyph-name="endash" unicode="&#x2013;" 
d="M191 288q14 14 34 14t34 -14t14 -33.5t-14 -33.5t-34 -14t-34 14l-33 34zM181 211q14 -14 14 -34t-14 -34t-33.5 -14t-33.5 14t-14 34t14 34l33 33zM112 301q-14 14 -14 33.5t14 33.5t33.5 14t33.5 -14t14 -33.5t-14 -33.5l-33 -34zM101 223q-14 -14 -33.5 -14t-33.5 14
t-14 33.5t14 33.5t33.5 14t33.5 -14l34 -34z" />
    <glyph glyph-name="bullet" unicode="&#x2022;" 
d="M191 288q14 14 34 14t34 -14t14 -33.5t-14 -33.5t-34 -14t-34 14l-33 34zM181 211q14 -14 14 -34t-14 -34t-33.5 -14t-33.5 14t-14 34t14 34l33 33zM112 301q-14 14 -14 33.5t14 33.5t33.5 14t33.5 -14t14 -33.5t-14 -33.5l-33 -34zM101 223q-14 -14 -33.5 -14t-33.5 14
t-14 33.5t14 33.5t33.5 14t33.5 -14l34 -34z" />
    <glyph glyph-name="quotedblright" unicode="&#x201d;" 
d="M191 288q14 14 34 14t34 -14t14 -33.5t-14 -33.5t-34 -14t-34 14l-33 34zM181 211q14 -14 14 -34t-14 -34t-33.5 -14t-33.5 14t-14 34t14 34l33 33zM112 301q-14 14 -14 33.5t14 33.5t33.5 14t33.5 -14t14 -33.5t-14 -33.5l-33 -34zM101 223q-14 -14 -33.5 -14t-33.5 14
t-14 33.5t14 33.5t33.5 14t33.5 -14l34 -34z" />
    <glyph glyph-name="quotedblleft" unicode="&#x201c;" 
d="M191 288q14 14 34 14t34 -14t14 -33.5t-14 -33.5t-34 -14t-34 14l-33 34zM181 211q14 -14 14 -34t-14 -34t-33.5 -14t-33.5 14t-14 34t14 34l33 33zM112 301q-14 14 -14 33.5t14 33.5t33.5 14t33.5 -14t14 -33.5t-14 -33.5l-33 -34zM101 223q-14 -14 -33.5 -14t-33.5 14
t-14 33.5t14 33.5t33.5 14t33.5 -14l34 -34z" />
    <glyph glyph-name="quoteright" unicode="&#x2019;" 
d="M191 288q14 14 34 14t34 -14t14 -33.5t-14 -33.5t-34 -14t-34 14l-33 34zM181 211q14 -14 14 -34t-14 -34t-33.5 -14t-33.5 14t-14 34t14 34l33 33zM112 301q-14 14 -14 33.5t14 33.5t33.5 14t33.5 -14t14 -33.5t-14 -33.5l-33 -34zM101 223q-14 -14 -33.5 -14t-33.5 14
t-14 33.5t14 33.5t33.5 14t33.5 -14l34 -34z" />
    <glyph glyph-name="quoteleft" unicode="&#x2018;" 
d="M191 288q14 14 34 14t34 -14t14 -33.5t-14 -33.5t-34 -14t-34 14l-33 34zM181 211q14 -14 14 -34t-14 -34t-33.5 -14t-33.5 14t-14 34t14 34l33 33zM112 301q-14 14 -14 33.5t14 33.5t33.5 14t33.5 -14t14 -33.5t-14 -33.5l-33 -34zM101 223q-14 -14 -33.5 -14t-33.5 14
t-14 33.5t14 33.5t33.5 14t33.5 -14l34 -34z" />
    <glyph glyph-name="OE" unicode="&#x152;" 
d="M191 288q14 14 34 14t34 -14t14 -33.5t-14 -33.5t-34 -14t-34 14l-33 34zM181 211q14 -14 14 -34t-14 -34t-33.5 -14t-33.5 14t-14 34t14 34l33 33zM112 301q-14 14 -14 33.5t14 33.5t33.5 14t33.5 -14t14 -33.5t-14 -33.5l-33 -34zM101 223q-14 -14 -33.5 -14t-33.5 14
t-14 33.5t14 33.5t33.5 14t33.5 -14l34 -34z" />
    <glyph glyph-name="guilsinglleft" unicode="&#x2039;" 
d="M191 288q14 14 34 14t34 -14t14 -33.5t-14 -33.5t-34 -14t-34 14l-33 34zM181 211q14 -14 14 -34t-14 -34t-33.5 -14t-33.5 14t-14 34t14 34l33 33zM112 301q-14 14 -14 33.5t14 33.5t33.5 14t33.5 -14t14 -33.5t-14 -33.5l-33 -34zM101 223q-14 -14 -33.5 -14t-33.5 14
t-14 33.5t14 33.5t33.5 14t33.5 -14l34 -34z" />
    <glyph glyph-name="Scaron" unicode="&#x160;" 
d="M191 288q14 14 34 14t34 -14t14 -33.5t-14 -33.5t-34 -14t-34 14l-33 34zM181 211q14 -14 14 -34t-14 -34t-33.5 -14t-33.5 14t-14 34t14 34l33 33zM112 301q-14 14 -14 33.5t14 33.5t33.5 14t33.5 -14t14 -33.5t-14 -33.5l-33 -34zM101 223q-14 -14 -33.5 -14t-33.5 14
t-14 33.5t14 33.5t33.5 14t33.5 -14l34 -34z" />
    <glyph glyph-name="perthousand" unicode="&#x2030;" 
d="M191 288q14 14 34 14t34 -14t14 -33.5t-14 -33.5t-34 -14t-34 14l-33 34zM181 211q14 -14 14 -34t-14 -34t-33.5 -14t-33.5 14t-14 34t14 34l33 33zM112 301q-14 14 -14 33.5t14 33.5t33.5 14t33.5 -14t14 -33.5t-14 -33.5l-33 -34zM101 223q-14 -14 -33.5 -14t-33.5 14
t-14 33.5t14 33.5t33.5 14t33.5 -14l34 -34z" />
    <glyph glyph-name="circumflex" unicode="&#x2c6;" 
d="M191 288q14 14 34 14t34 -14t14 -33.5t-14 -33.5t-34 -14t-34 14l-33 34zM181 211q14 -14 14 -34t-14 -34t-33.5 -14t-33.5 14t-14 34t14 34l33 33zM112 301q-14 14 -14 33.5t14 33.5t33.5 14t33.5 -14t14 -33.5t-14 -33.5l-33 -34zM101 223q-14 -14 -33.5 -14t-33.5 14
t-14 33.5t14 33.5t33.5 14t33.5 -14l34 -34z" />
    <glyph glyph-name="daggerdbl" unicode="&#x2021;" 
d="M191 288q14 14 34 14t34 -14t14 -33.5t-14 -33.5t-34 -14t-34 14l-33 34zM181 211q14 -14 14 -34t-14 -34t-33.5 -14t-33.5 14t-14 34t14 34l33 33zM112 301q-14 14 -14 33.5t14 33.5t33.5 14t33.5 -14t14 -33.5t-14 -33.5l-33 -34zM101 223q-14 -14 -33.5 -14t-33.5 14
t-14 33.5t14 33.5t33.5 14t33.5 -14l34 -34z" />
    <glyph glyph-name="dagger" unicode="&#x2020;" 
d="M191 288q14 14 34 14t34 -14t14 -33.5t-14 -33.5t-34 -14t-34 14l-33 34zM181 211q14 -14 14 -34t-14 -34t-33.5 -14t-33.5 14t-14 34t14 34l33 33zM112 301q-14 14 -14 33.5t14 33.5t33.5 14t33.5 -14t14 -33.5t-14 -33.5l-33 -34zM101 223q-14 -14 -33.5 -14t-33.5 14
t-14 33.5t14 33.5t33.5 14t33.5 -14l34 -34z" />
    <glyph glyph-name="ellipsis" unicode="&#x2026;" 
d="M191 288q14 14 34 14t34 -14t14 -33.5t-14 -33.5t-34 -14t-34 14l-33 34zM181 211q14 -14 14 -34t-14 -34t-33.5 -14t-33.5 14t-14 34t14 34l33 33zM112 301q-14 14 -14 33.5t14 33.5t33.5 14t33.5 -14t14 -33.5t-14 -33.5l-33 -34zM101 223q-14 -14 -33.5 -14t-33.5 14
t-14 33.5t14 33.5t33.5 14t33.5 -14l34 -34z" />
    <glyph glyph-name="quotedblbase" unicode="&#x201e;" 
d="M191 288q14 14 34 14t34 -14t14 -33.5t-14 -33.5t-34 -14t-34 14l-33 34zM181 211q14 -14 14 -34t-14 -34t-33.5 -14t-33.5 14t-14 34t14 34l33 33zM112 301q-14 14 -14 33.5t14 33.5t33.5 14t33.5 -14t14 -33.5t-14 -33.5l-33 -34zM101 223q-14 -14 -33.5 -14t-33.5 14
t-14 33.5t14 33.5t33.5 14t33.5 -14l34 -34z" />
    <glyph glyph-name="scaron" unicode="&#x161;" 
d="M191 288q14 14 34 14t34 -14t14 -33.5t-14 -33.5t-34 -14t-34 14l-33 34zM181 211q14 -14 14 -34t-14 -34t-33.5 -14t-33.5 14t-14 34t14 34l33 33zM112 301q-14 14 -14 33.5t14 33.5t33.5 14t33.5 -14t14 -33.5t-14 -33.5l-33 -34zM101 223q-14 -14 -33.5 -14t-33.5 14
t-14 33.5t14 33.5t33.5 14t33.5 -14l34 -34z" />
    <glyph glyph-name="guilsinglright" unicode="&#x203a;" 
d="M191 288q14 14 34 14t34 -14t14 -33.5t-14 -33.5t-34 -14t-34 14l-33 34zM181 211q14 -14 14 -34t-14 -34t-33.5 -14t-33.5 14t-14 34t14 34l33 33zM112 301q-14 14 -14 33.5t14 33.5t33.5 14t33.5 -14t14 -33.5t-14 -33.5l-33 -34zM101 223q-14 -14 -33.5 -14t-33.5 14
t-14 33.5t14 33.5t33.5 14t33.5 -14l34 -34z" />
    <glyph glyph-name="oe" unicode="&#x153;" 
d="M191 288q14 14 34 14t34 -14t14 -33.5t-14 -33.5t-34 -14t-34 14l-33 34zM181 211q14 -14 14 -34t-14 -34t-33.5 -14t-33.5 14t-14 34t14 34l33 33zM112 301q-14 14 -14 33.5t14 33.5t33.5 14t33.5 -14t14 -33.5t-14 -33.5l-33 -34zM101 223q-14 -14 -33.5 -14t-33.5 14
t-14 33.5t14 33.5t33.5 14t33.5 -14l34 -34z" />
    <glyph glyph-name="Ydieresis" unicode="&#x178;" 
d="M191 288q14 14 34 14t34 -14t14 -33.5t-14 -33.5t-34 -14t-34 14l-33 34zM181 211q14 -14 14 -34t-14 -34t-33.5 -14t-33.5 14t-14 34t14 34l33 33zM112 301q-14 14 -14 33.5t14 33.5t33.5 14t33.5 -14t14 -33.5t-14 -33.5l-33 -34zM101 223q-14 -14 -33.5 -14t-33.5 14
t-14 33.5t14 33.5t33.5 14t33.5 -14l34 -34z" />
    <glyph glyph-name="uni00A0" unicode="&#xa0;" 
d="M191 288q14 14 34 14t34 -14t14 -33.5t-14 -33.5t-34 -14t-34 14l-33 34zM181 211q14 -14 14 -34t-14 -34t-33.5 -14t-33.5 14t-14 34t14 34l33 33zM112 301q-14 14 -14 33.5t14 33.5t33.5 14t33.5 -14t14 -33.5t-14 -33.5l-33 -34zM101 223q-14 -14 -33.5 -14t-33.5 14
t-14 33.5t14 33.5t33.5 14t33.5 -14l34 -34z" />
    <glyph glyph-name="exclamdown" unicode="&#xa1;" 
d="M191 288q14 14 34 14t34 -14t14 -33.5t-14 -33.5t-34 -14t-34 14l-33 34zM181 211q14 -14 14 -34t-14 -34t-33.5 -14t-33.5 14t-14 34t14 34l33 33zM112 301q-14 14 -14 33.5t14 33.5t33.5 14t33.5 -14t14 -33.5t-14 -33.5l-33 -34zM101 223q-14 -14 -33.5 -14t-33.5 14
t-14 33.5t14 33.5t33.5 14t33.5 -14l34 -34z" />
    <glyph glyph-name="cent" unicode="&#xa2;" 
d="M191 288q14 14 34 14t34 -14t14 -33.5t-14 -33.5t-34 -14t-34 14l-33 34zM181 211q14 -14 14 -34t-14 -34t-33.5 -14t-33.5 14t-14 34t14 34l33 33zM112 301q-14 14 -14 33.5t14 33.5t33.5 14t33.5 -14t14 -33.5t-14 -33.5l-33 -34zM101 223q-14 -14 -33.5 -14t-33.5 14
t-14 33.5t14 33.5t33.5 14t33.5 -14l34 -34z" />
    <glyph glyph-name="sterling" unicode="&#xa3;" 
d="M191 288q14 14 34 14t34 -14t14 -33.5t-14 -33.5t-34 -14t-34 14l-33 34zM181 211q14 -14 14 -34t-14 -34t-33.5 -14t-33.5 14t-14 34t14 34l33 33zM112 301q-14 14 -14 33.5t14 33.5t33.5 14t33.5 -14t14 -33.5t-14 -33.5l-33 -34zM101 223q-14 -14 -33.5 -14t-33.5 14
t-14 33.5t14 33.5t33.5 14t33.5 -14l34 -34z" />
    <glyph glyph-name="currency" unicode="&#xa4;" 
d="M191 288q14 14 34 14t34 -14t14 -33.5t-14 -33.5t-34 -14t-34 14l-33 34zM181 211q14 -14 14 -34t-14 -34t-33.5 -14t-33.5 14t-14 34t14 34l33 33zM112 301q-14 14 -14 33.5t14 33.5t33.5 14t33.5 -14t14 -33.5t-14 -33.5l-33 -34zM101 223q-14 -14 -33.5 -14t-33.5 14
t-14 33.5t14 33.5t33.5 14t33.5 -14l34 -34z" />
    <glyph glyph-name="yen" unicode="&#xa5;" 
d="M191 288q14 14 34 14t34 -14t14 -33.5t-14 -33.5t-34 -14t-34 14l-33 34zM181 211q14 -14 14 -34t-14 -34t-33.5 -14t-33.5 14t-14 34t14 34l33 33zM112 301q-14 14 -14 33.5t14 33.5t33.5 14t33.5 -14t14 -33.5t-14 -33.5l-33 -34zM101 223q-14 -14 -33.5 -14t-33.5 14
t-14 33.5t14 33.5t33.5 14t33.5 -14l34 -34z" />
    <glyph glyph-name="brokenbar" unicode="&#xa6;" 
d="M191 288q14 14 34 14t34 -14t14 -33.5t-14 -33.5t-34 -14t-34 14l-33 34zM181 211q14 -14 14 -34t-14 -34t-33.5 -14t-33.5 14t-14 34t14 34l33 33zM112 301q-14 14 -14 33.5t14 33.5t33.5 14t33.5 -14t14 -33.5t-14 -33.5l-33 -34zM101 223q-14 -14 -33.5 -14t-33.5 14
t-14 33.5t14 33.5t33.5 14t33.5 -14l34 -34z" />
    <glyph glyph-name="section" unicode="&#xa7;" 
d="M191 288q14 14 34 14t34 -14t14 -33.5t-14 -33.5t-34 -14t-34 14l-33 34zM181 211q14 -14 14 -34t-14 -34t-33.5 -14t-33.5 14t-14 34t14 34l33 33zM112 301q-14 14 -14 33.5t14 33.5t33.5 14t33.5 -14t14 -33.5t-14 -33.5l-33 -34zM101 223q-14 -14 -33.5 -14t-33.5 14
t-14 33.5t14 33.5t33.5 14t33.5 -14l34 -34z" />
    <glyph glyph-name="dieresis" unicode="&#xa8;" 
d="M191 288q14 14 34 14t34 -14t14 -33.5t-14 -33.5t-34 -14t-34 14l-33 34zM181 211q14 -14 14 -34t-14 -34t-33.5 -14t-33.5 14t-14 34t14 34l33 33zM112 301q-14 14 -14 33.5t14 33.5t33.5 14t33.5 -14t14 -33.5t-14 -33.5l-33 -34zM101 223q-14 -14 -33.5 -14t-33.5 14
t-14 33.5t14 33.5t33.5 14t33.5 -14l34 -34z" />
    <glyph glyph-name="copyright" unicode="&#xa9;" 
d="M191 288q14 14 34 14t34 -14t14 -33.5t-14 -33.5t-34 -14t-34 14l-33 34zM181 211q14 -14 14 -34t-14 -34t-33.5 -14t-33.5 14t-14 34t14 34l33 33zM112 301q-14 14 -14 33.5t14 33.5t33.5 14t33.5 -14t14 -33.5t-14 -33.5l-33 -34zM101 223q-14 -14 -33.5 -14t-33.5 14
t-14 33.5t14 33.5t33.5 14t33.5 -14l34 -34z" />
    <glyph glyph-name="ordfeminine" unicode="&#xaa;" 
d="M191 288q14 14 34 14t34 -14t14 -33.5t-14 -33.5t-34 -14t-34 14l-33 34zM181 211q14 -14 14 -34t-14 -34t-33.5 -14t-33.5 14t-14 34t14 34l33 33zM112 301q-14 14 -14 33.5t14 33.5t33.5 14t33.5 -14t14 -33.5t-14 -33.5l-33 -34zM101 223q-14 -14 -33.5 -14t-33.5 14
t-14 33.5t14 33.5t33.5 14t33.5 -14l34 -34z" />
    <glyph glyph-name="guillemotleft" unicode="&#xab;" 
d="M191 288q14 14 34 14t34 -14t14 -33.5t-14 -33.5t-34 -14t-34 14l-33 34zM181 211q14 -14 14 -34t-14 -34t-33.5 -14t-33.5 14t-14 34t14 34l33 33zM112 301q-14 14 -14 33.5t14 33.5t33.5 14t33.5 -14t14 -33.5t-14 -33.5l-33 -34zM101 223q-14 -14 -33.5 -14t-33.5 14
t-14 33.5t14 33.5t33.5 14t33.5 -14l34 -34z" />
    <glyph glyph-name="logicalnot" unicode="&#xac;" 
d="M191 288q14 14 34 14t34 -14t14 -33.5t-14 -33.5t-34 -14t-34 14l-33 34zM181 211q14 -14 14 -34t-14 -34t-33.5 -14t-33.5 14t-14 34t14 34l33 33zM112 301q-14 14 -14 33.5t14 33.5t33.5 14t33.5 -14t14 -33.5t-14 -33.5l-33 -34zM101 223q-14 -14 -33.5 -14t-33.5 14
t-14 33.5t14 33.5t33.5 14t33.5 -14l34 -34z" />
    <glyph glyph-name="minus" unicode="&#xad;" 
d="M191 288q14 14 34 14t34 -14t14 -33.5t-14 -33.5t-34 -14t-34 14l-33 34zM181 211q14 -14 14 -34t-14 -34t-33.5 -14t-33.5 14t-14 34t14 34l33 33zM112 301q-14 14 -14 33.5t14 33.5t33.5 14t33.5 -14t14 -33.5t-14 -33.5l-33 -34zM101 223q-14 -14 -33.5 -14t-33.5 14
t-14 33.5t14 33.5t33.5 14t33.5 -14l34 -34z" />
    <glyph glyph-name="registered" unicode="&#xae;" 
d="M191 288q14 14 34 14t34 -14t14 -33.5t-14 -33.5t-34 -14t-34 14l-33 34zM181 211q14 -14 14 -34t-14 -34t-33.5 -14t-33.5 14t-14 34t14 34l33 33zM112 301q-14 14 -14 33.5t14 33.5t33.5 14t33.5 -14t14 -33.5t-14 -33.5l-33 -34zM101 223q-14 -14 -33.5 -14t-33.5 14
t-14 33.5t14 33.5t33.5 14t33.5 -14l34 -34z" />
    <glyph glyph-name="macron" unicode="&#xaf;" 
d="M191 288q14 14 34 14t34 -14t14 -33.5t-14 -33.5t-34 -14t-34 14l-33 34zM181 211q14 -14 14 -34t-14 -34t-33.5 -14t-33.5 14t-14 34t14 34l33 33zM112 301q-14 14 -14 33.5t14 33.5t33.5 14t33.5 -14t14 -33.5t-14 -33.5l-33 -34zM101 223q-14 -14 -33.5 -14t-33.5 14
t-14 33.5t14 33.5t33.5 14t33.5 -14l34 -34z" />
    <glyph glyph-name="Aring" unicode="&#xc5;" 
d="M191 288q14 14 34 14t34 -14t14 -33.5t-14 -33.5t-34 -14t-34 14l-33 34zM181 211q14 -14 14 -34t-14 -34t-33.5 -14t-33.5 14t-14 34t14 34l33 33zM112 301q-14 14 -14 33.5t14 33.5t33.5 14t33.5 -14t14 -33.5t-14 -33.5l-33 -34zM101 223q-14 -14 -33.5 -14t-33.5 14
t-14 33.5t14 33.5t33.5 14t33.5 -14l34 -34z" />
    <glyph glyph-name="Adieresis" unicode="&#xc4;" 
d="M191 288q14 14 34 14t34 -14t14 -33.5t-14 -33.5t-34 -14t-34 14l-33 34zM181 211q14 -14 14 -34t-14 -34t-33.5 -14t-33.5 14t-14 34t14 34l33 33zM112 301q-14 14 -14 33.5t14 33.5t33.5 14t33.5 -14t14 -33.5t-14 -33.5l-33 -34zM101 223q-14 -14 -33.5 -14t-33.5 14
t-14 33.5t14 33.5t33.5 14t33.5 -14l34 -34z" />
    <glyph glyph-name="Atilde" unicode="&#xc3;" 
d="M191 288q14 14 34 14t34 -14t14 -33.5t-14 -33.5t-34 -14t-34 14l-33 34zM181 211q14 -14 14 -34t-14 -34t-33.5 -14t-33.5 14t-14 34t14 34l33 33zM112 301q-14 14 -14 33.5t14 33.5t33.5 14t33.5 -14t14 -33.5t-14 -33.5l-33 -34zM101 223q-14 -14 -33.5 -14t-33.5 14
t-14 33.5t14 33.5t33.5 14t33.5 -14l34 -34z" />
    <glyph glyph-name="Acircumflex" unicode="&#xc2;" 
d="M191 288q14 14 34 14t34 -14t14 -33.5t-14 -33.5t-34 -14t-34 14l-33 34zM181 211q14 -14 14 -34t-14 -34t-33.5 -14t-33.5 14t-14 34t14 34l33 33zM112 301q-14 14 -14 33.5t14 33.5t33.5 14t33.5 -14t14 -33.5t-14 -33.5l-33 -34zM101 223q-14 -14 -33.5 -14t-33.5 14
t-14 33.5t14 33.5t33.5 14t33.5 -14l34 -34z" />
    <glyph glyph-name="Aacute" unicode="&#xc1;" 
d="M191 288q14 14 34 14t34 -14t14 -33.5t-14 -33.5t-34 -14t-34 14l-33 34zM181 211q14 -14 14 -34t-14 -34t-33.5 -14t-33.5 14t-14 34t14 34l33 33zM112 301q-14 14 -14 33.5t14 33.5t33.5 14t33.5 -14t14 -33.5t-14 -33.5l-33 -34zM101 223q-14 -14 -33.5 -14t-33.5 14
t-14 33.5t14 33.5t33.5 14t33.5 -14l34 -34z" />
    <glyph glyph-name="Agrave" unicode="&#xc0;" 
d="M191 288q14 14 34 14t34 -14t14 -33.5t-14 -33.5t-34 -14t-34 14l-33 34zM181 211q14 -14 14 -34t-14 -34t-33.5 -14t-33.5 14t-14 34t14 34l33 33zM112 301q-14 14 -14 33.5t14 33.5t33.5 14t33.5 -14t14 -33.5t-14 -33.5l-33 -34zM101 223q-14 -14 -33.5 -14t-33.5 14
t-14 33.5t14 33.5t33.5 14t33.5 -14l34 -34z" />
    <glyph glyph-name="questiondown" unicode="&#xbf;" 
d="M191 288q14 14 34 14t34 -14t14 -33.5t-14 -33.5t-34 -14t-34 14l-33 34zM181 211q14 -14 14 -34t-14 -34t-33.5 -14t-33.5 14t-14 34t14 34l33 33zM112 301q-14 14 -14 33.5t14 33.5t33.5 14t33.5 -14t14 -33.5t-14 -33.5l-33 -34zM101 223q-14 -14 -33.5 -14t-33.5 14
t-14 33.5t14 33.5t33.5 14t33.5 -14l34 -34z" />
    <glyph glyph-name="threequarters" unicode="&#xbe;" 
d="M191 288q14 14 34 14t34 -14t14 -33.5t-14 -33.5t-34 -14t-34 14l-33 34zM181 211q14 -14 14 -34t-14 -34t-33.5 -14t-33.5 14t-14 34t14 34l33 33zM112 301q-14 14 -14 33.5t14 33.5t33.5 14t33.5 -14t14 -33.5t-14 -33.5l-33 -34zM101 223q-14 -14 -33.5 -14t-33.5 14
t-14 33.5t14 33.5t33.5 14t33.5 -14l34 -34z" />
    <glyph glyph-name="onehalf" unicode="&#xbd;" 
d="M191 288q14 14 34 14t34 -14t14 -33.5t-14 -33.5t-34 -14t-34 14l-33 34zM181 211q14 -14 14 -34t-14 -34t-33.5 -14t-33.5 14t-14 34t14 34l33 33zM112 301q-14 14 -14 33.5t14 33.5t33.5 14t33.5 -14t14 -33.5t-14 -33.5l-33 -34zM101 223q-14 -14 -33.5 -14t-33.5 14
t-14 33.5t14 33.5t33.5 14t33.5 -14l34 -34z" />
    <glyph glyph-name="onequarter" unicode="&#xbc;" 
d="M191 288q14 14 34 14t34 -14t14 -33.5t-14 -33.5t-34 -14t-34 14l-33 34zM181 211q14 -14 14 -34t-14 -34t-33.5 -14t-33.5 14t-14 34t14 34l33 33zM112 301q-14 14 -14 33.5t14 33.5t33.5 14t33.5 -14t14 -33.5t-14 -33.5l-33 -34zM101 223q-14 -14 -33.5 -14t-33.5 14
t-14 33.5t14 33.5t33.5 14t33.5 -14l34 -34z" />
    <glyph glyph-name="guillemotright" unicode="&#xbb;" 
d="M191 288q14 14 34 14t34 -14t14 -33.5t-14 -33.5t-34 -14t-34 14l-33 34zM181 211q14 -14 14 -34t-14 -34t-33.5 -14t-33.5 14t-14 34t14 34l33 33zM112 301q-14 14 -14 33.5t14 33.5t33.5 14t33.5 -14t14 -33.5t-14 -33.5l-33 -34zM101 223q-14 -14 -33.5 -14t-33.5 14
t-14 33.5t14 33.5t33.5 14t33.5 -14l34 -34z" />
    <glyph glyph-name="ordmasculine" unicode="&#xba;" 
d="M191 288q14 14 34 14t34 -14t14 -33.5t-14 -33.5t-34 -14t-34 14l-33 34zM181 211q14 -14 14 -34t-14 -34t-33.5 -14t-33.5 14t-14 34t14 34l33 33zM112 301q-14 14 -14 33.5t14 33.5t33.5 14t33.5 -14t14 -33.5t-14 -33.5l-33 -34zM101 223q-14 -14 -33.5 -14t-33.5 14
t-14 33.5t14 33.5t33.5 14t33.5 -14l34 -34z" />
    <glyph glyph-name="onesuperior" unicode="&#xb9;" 
d="M191 288q14 14 34 14t34 -14t14 -33.5t-14 -33.5t-34 -14t-34 14l-33 34zM181 211q14 -14 14 -34t-14 -34t-33.5 -14t-33.5 14t-14 34t14 34l33 33zM112 301q-14 14 -14 33.5t14 33.5t33.5 14t33.5 -14t14 -33.5t-14 -33.5l-33 -34zM101 223q-14 -14 -33.5 -14t-33.5 14
t-14 33.5t14 33.5t33.5 14t33.5 -14l34 -34z" />
    <glyph glyph-name="cedilla" unicode="&#xb8;" 
d="M191 288q14 14 34 14t34 -14t14 -33.5t-14 -33.5t-34 -14t-34 14l-33 34zM181 211q14 -14 14 -34t-14 -34t-33.5 -14t-33.5 14t-14 34t14 34l33 33zM112 301q-14 14 -14 33.5t14 33.5t33.5 14t33.5 -14t14 -33.5t-14 -33.5l-33 -34zM101 223q-14 -14 -33.5 -14t-33.5 14
t-14 33.5t14 33.5t33.5 14t33.5 -14l34 -34z" />
    <glyph glyph-name="periodcentered" unicode="&#xb7;" 
d="M191 288q14 14 34 14t34 -14t14 -33.5t-14 -33.5t-34 -14t-34 14l-33 34zM181 211q14 -14 14 -34t-14 -34t-33.5 -14t-33.5 14t-14 34t14 34l33 33zM112 301q-14 14 -14 33.5t14 33.5t33.5 14t33.5 -14t14 -33.5t-14 -33.5l-33 -34zM101 223q-14 -14 -33.5 -14t-33.5 14
t-14 33.5t14 33.5t33.5 14t33.5 -14l34 -34z" />
    <glyph glyph-name="periodcentered" unicode="&#x2219;" 
d="M191 288q14 14 34 14t34 -14t14 -33.5t-14 -33.5t-34 -14t-34 14l-33 34zM181 211q14 -14 14 -34t-14 -34t-33.5 -14t-33.5 14t-14 34t14 34l33 33zM112 301q-14 14 -14 33.5t14 33.5t33.5 14t33.5 -14t14 -33.5t-14 -33.5l-33 -34zM101 223q-14 -14 -33.5 -14t-33.5 14
t-14 33.5t14 33.5t33.5 14t33.5 -14l34 -34z" />
    <glyph glyph-name="paragraph" unicode="&#xb6;" 
d="M191 288q14 14 34 14t34 -14t14 -33.5t-14 -33.5t-34 -14t-34 14l-33 34zM181 211q14 -14 14 -34t-14 -34t-33.5 -14t-33.5 14t-14 34t14 34l33 33zM112 301q-14 14 -14 33.5t14 33.5t33.5 14t33.5 -14t14 -33.5t-14 -33.5l-33 -34zM101 223q-14 -14 -33.5 -14t-33.5 14
t-14 33.5t14 33.5t33.5 14t33.5 -14l34 -34z" />
    <glyph glyph-name="mu" unicode="&#xb5;" 
d="M191 288q14 14 34 14t34 -14t14 -33.5t-14 -33.5t-34 -14t-34 14l-33 34zM181 211q14 -14 14 -34t-14 -34t-33.5 -14t-33.5 14t-14 34t14 34l33 33zM112 301q-14 14 -14 33.5t14 33.5t33.5 14t33.5 -14t14 -33.5t-14 -33.5l-33 -34zM101 223q-14 -14 -33.5 -14t-33.5 14
t-14 33.5t14 33.5t33.5 14t33.5 -14l34 -34z" />
    <glyph glyph-name="acute" unicode="&#xb4;" 
d="M191 288q14 14 34 14t34 -14t14 -33.5t-14 -33.5t-34 -14t-34 14l-33 34zM181 211q14 -14 14 -34t-14 -34t-33.5 -14t-33.5 14t-14 34t14 34l33 33zM112 301q-14 14 -14 33.5t14 33.5t33.5 14t33.5 -14t14 -33.5t-14 -33.5l-33 -34zM101 223q-14 -14 -33.5 -14t-33.5 14
t-14 33.5t14 33.5t33.5 14t33.5 -14l34 -34z" />
    <glyph glyph-name="threesuperior" unicode="&#xb3;" 
d="M191 288q14 14 34 14t34 -14t14 -33.5t-14 -33.5t-34 -14t-34 14l-33 34zM181 211q14 -14 14 -34t-14 -34t-33.5 -14t-33.5 14t-14 34t14 34l33 33zM112 301q-14 14 -14 33.5t14 33.5t33.5 14t33.5 -14t14 -33.5t-14 -33.5l-33 -34zM101 223q-14 -14 -33.5 -14t-33.5 14
t-14 33.5t14 33.5t33.5 14t33.5 -14l34 -34z" />
    <glyph glyph-name="twosuperior" unicode="&#xb2;" 
d="M191 288q14 14 34 14t34 -14t14 -33.5t-14 -33.5t-34 -14t-34 14l-33 34zM181 211q14 -14 14 -34t-14 -34t-33.5 -14t-33.5 14t-14 34t14 34l33 33zM112 301q-14 14 -14 33.5t14 33.5t33.5 14t33.5 -14t14 -33.5t-14 -33.5l-33 -34zM101 223q-14 -14 -33.5 -14t-33.5 14
t-14 33.5t14 33.5t33.5 14t33.5 -14l34 -34z" />
    <glyph glyph-name="plusminus" unicode="&#xb1;" 
d="M191 288q14 14 34 14t34 -14t14 -33.5t-14 -33.5t-34 -14t-34 14l-33 34zM181 211q14 -14 14 -34t-14 -34t-33.5 -14t-33.5 14t-14 34t14 34l33 33zM112 301q-14 14 -14 33.5t14 33.5t33.5 14t33.5 -14t14 -33.5t-14 -33.5l-33 -34zM101 223q-14 -14 -33.5 -14t-33.5 14
t-14 33.5t14 33.5t33.5 14t33.5 -14l34 -34z" />
    <glyph glyph-name="degree" unicode="&#xb0;" 
d="M191 288q14 14 34 14t34 -14t14 -33.5t-14 -33.5t-34 -14t-34 14l-33 34zM181 211q14 -14 14 -34t-14 -34t-33.5 -14t-33.5 14t-14 34t14 34l33 33zM112 301q-14 14 -14 33.5t14 33.5t33.5 14t33.5 -14t14 -33.5t-14 -33.5l-33 -34zM101 223q-14 -14 -33.5 -14t-33.5 14
t-14 33.5t14 33.5t33.5 14t33.5 -14l34 -34z" />
    <glyph glyph-name="ntilde" unicode="&#xf1;" 
d="M191 288q14 14 34 14t34 -14t14 -33.5t-14 -33.5t-34 -14t-34 14l-33 34zM181 211q14 -14 14 -34t-14 -34t-33.5 -14t-33.5 14t-14 34t14 34l33 33zM112 301q-14 14 -14 33.5t14 33.5t33.5 14t33.5 -14t14 -33.5t-14 -33.5l-33 -34zM101 223q-14 -14 -33.5 -14t-33.5 14
t-14 33.5t14 33.5t33.5 14t33.5 -14l34 -34z" />
    <glyph glyph-name="eth" unicode="&#xf0;" 
d="M191 288q14 14 34 14t34 -14t14 -33.5t-14 -33.5t-34 -14t-34 14l-33 34zM181 211q14 -14 14 -34t-14 -34t-33.5 -14t-33.5 14t-14 34t14 34l33 33zM112 301q-14 14 -14 33.5t14 33.5t33.5 14t33.5 -14t14 -33.5t-14 -33.5l-33 -34zM101 223q-14 -14 -33.5 -14t-33.5 14
t-14 33.5t14 33.5t33.5 14t33.5 -14l34 -34z" />
    <glyph glyph-name="idieresis" unicode="&#xef;" 
d="M191 288q14 14 34 14t34 -14t14 -33.5t-14 -33.5t-34 -14t-34 14l-33 34zM181 211q14 -14 14 -34t-14 -34t-33.5 -14t-33.5 14t-14 34t14 34l33 33zM112 301q-14 14 -14 33.5t14 33.5t33.5 14t33.5 -14t14 -33.5t-14 -33.5l-33 -34zM101 223q-14 -14 -33.5 -14t-33.5 14
t-14 33.5t14 33.5t33.5 14t33.5 -14l34 -34z" />
    <glyph glyph-name="icircumflex" unicode="&#xee;" 
d="M191 288q14 14 34 14t34 -14t14 -33.5t-14 -33.5t-34 -14t-34 14l-33 34zM181 211q14 -14 14 -34t-14 -34t-33.5 -14t-33.5 14t-14 34t14 34l33 33zM112 301q-14 14 -14 33.5t14 33.5t33.5 14t33.5 -14t14 -33.5t-14 -33.5l-33 -34zM101 223q-14 -14 -33.5 -14t-33.5 14
t-14 33.5t14 33.5t33.5 14t33.5 -14l34 -34z" />
    <glyph glyph-name="iacute" unicode="&#xed;" 
d="M191 288q14 14 34 14t34 -14t14 -33.5t-14 -33.5t-34 -14t-34 14l-33 34zM181 211q14 -14 14 -34t-14 -34t-33.5 -14t-33.5 14t-14 34t14 34l33 33zM112 301q-14 14 -14 33.5t14 33.5t33.5 14t33.5 -14t14 -33.5t-14 -33.5l-33 -34zM101 223q-14 -14 -33.5 -14t-33.5 14
t-14 33.5t14 33.5t33.5 14t33.5 -14l34 -34z" />
    <glyph glyph-name="igrave" unicode="&#xec;" 
d="M191 288q14 14 34 14t34 -14t14 -33.5t-14 -33.5t-34 -14t-34 14l-33 34zM181 211q14 -14 14 -34t-14 -34t-33.5 -14t-33.5 14t-14 34t14 34l33 33zM112 301q-14 14 -14 33.5t14 33.5t33.5 14t33.5 -14t14 -33.5t-14 -33.5l-33 -34zM101 223q-14 -14 -33.5 -14t-33.5 14
t-14 33.5t14 33.5t33.5 14t33.5 -14l34 -34z" />
    <glyph glyph-name="edieresis" unicode="&#xeb;" 
d="M191 288q14 14 34 14t34 -14t14 -33.5t-14 -33.5t-34 -14t-34 14l-33 34zM181 211q14 -14 14 -34t-14 -34t-33.5 -14t-33.5 14t-14 34t14 34l33 33zM112 301q-14 14 -14 33.5t14 33.5t33.5 14t33.5 -14t14 -33.5t-14 -33.5l-33 -34zM101 223q-14 -14 -33.5 -14t-33.5 14
t-14 33.5t14 33.5t33.5 14t33.5 -14l34 -34z" />
    <glyph glyph-name="ecircumflex" unicode="&#xea;" 
d="M191 288q14 14 34 14t34 -14t14 -33.5t-14 -33.5t-34 -14t-34 14l-33 34zM181 211q14 -14 14 -34t-14 -34t-33.5 -14t-33.5 14t-14 34t14 34l33 33zM112 301q-14 14 -14 33.5t14 33.5t33.5 14t33.5 -14t14 -33.5t-14 -33.5l-33 -34zM101 223q-14 -14 -33.5 -14t-33.5 14
t-14 33.5t14 33.5t33.5 14t33.5 -14l34 -34z" />
    <glyph glyph-name="eacute" unicode="&#xe9;" 
d="M191 288q14 14 34 14t34 -14t14 -33.5t-14 -33.5t-34 -14t-34 14l-33 34zM181 211q14 -14 14 -34t-14 -34t-33.5 -14t-33.5 14t-14 34t14 34l33 33zM112 301q-14 14 -14 33.5t14 33.5t33.5 14t33.5 -14t14 -33.5t-14 -33.5l-33 -34zM101 223q-14 -14 -33.5 -14t-33.5 14
t-14 33.5t14 33.5t33.5 14t33.5 -14l34 -34z" />
    <glyph glyph-name="egrave" unicode="&#xe8;" 
d="M191 288q14 14 34 14t34 -14t14 -33.5t-14 -33.5t-34 -14t-34 14l-33 34zM181 211q14 -14 14 -34t-14 -34t-33.5 -14t-33.5 14t-14 34t14 34l33 33zM112 301q-14 14 -14 33.5t14 33.5t33.5 14t33.5 -14t14 -33.5t-14 -33.5l-33 -34zM101 223q-14 -14 -33.5 -14t-33.5 14
t-14 33.5t14 33.5t33.5 14t33.5 -14l34 -34z" />
    <glyph glyph-name="ccedilla" unicode="&#xe7;" 
d="M191 288q14 14 34 14t34 -14t14 -33.5t-14 -33.5t-34 -14t-34 14l-33 34zM181 211q14 -14 14 -34t-14 -34t-33.5 -14t-33.5 14t-14 34t14 34l33 33zM112 301q-14 14 -14 33.5t14 33.5t33.5 14t33.5 -14t14 -33.5t-14 -33.5l-33 -34zM101 223q-14 -14 -33.5 -14t-33.5 14
t-14 33.5t14 33.5t33.5 14t33.5 -14l34 -34z" />
    <glyph glyph-name="ae" unicode="&#xe6;" 
d="M191 288q14 14 34 14t34 -14t14 -33.5t-14 -33.5t-34 -14t-34 14l-33 34zM181 211q14 -14 14 -34t-14 -34t-33.5 -14t-33.5 14t-14 34t14 34l33 33zM112 301q-14 14 -14 33.5t14 33.5t33.5 14t33.5 -14t14 -33.5t-14 -33.5l-33 -34zM101 223q-14 -14 -33.5 -14t-33.5 14
t-14 33.5t14 33.5t33.5 14t33.5 -14l34 -34z" />
    <glyph glyph-name="aring" unicode="&#xe5;" 
d="M191 288q14 14 34 14t34 -14t14 -33.5t-14 -33.5t-34 -14t-34 14l-33 34zM181 211q14 -14 14 -34t-14 -34t-33.5 -14t-33.5 14t-14 34t14 34l33 33zM112 301q-14 14 -14 33.5t14 33.5t33.5 14t33.5 -14t14 -33.5t-14 -33.5l-33 -34zM101 223q-14 -14 -33.5 -14t-33.5 14
t-14 33.5t14 33.5t33.5 14t33.5 -14l34 -34z" />
    <glyph glyph-name="adieresis" unicode="&#xe4;" 
d="M191 288q14 14 34 14t34 -14t14 -33.5t-14 -33.5t-34 -14t-34 14l-33 34zM181 211q14 -14 14 -34t-14 -34t-33.5 -14t-33.5 14t-14 34t14 34l33 33zM112 301q-14 14 -14 33.5t14 33.5t33.5 14t33.5 -14t14 -33.5t-14 -33.5l-33 -34zM101 223q-14 -14 -33.5 -14t-33.5 14
t-14 33.5t14 33.5t33.5 14t33.5 -14l34 -34z" />
    <glyph glyph-name="atilde" unicode="&#xe3;" 
d="M191 288q14 14 34 14t34 -14t14 -33.5t-14 -33.5t-34 -14t-34 14l-33 34zM181 211q14 -14 14 -34t-14 -34t-33.5 -14t-33.5 14t-14 34t14 34l33 33zM112 301q-14 14 -14 33.5t14 33.5t33.5 14t33.5 -14t14 -33.5t-14 -33.5l-33 -34zM101 223q-14 -14 -33.5 -14t-33.5 14
t-14 33.5t14 33.5t33.5 14t33.5 -14l34 -34z" />
    <glyph glyph-name="acircumflex" unicode="&#xe2;" 
d="M191 288q14 14 34 14t34 -14t14 -33.5t-14 -33.5t-34 -14t-34 14l-33 34zM181 211q14 -14 14 -34t-14 -34t-33.5 -14t-33.5 14t-14 34t14 34l33 33zM112 301q-14 14 -14 33.5t14 33.5t33.5 14t33.5 -14t14 -33.5t-14 -33.5l-33 -34zM101 223q-14 -14 -33.5 -14t-33.5 14
t-14 33.5t14 33.5t33.5 14t33.5 -14l34 -34z" />
    <glyph glyph-name="agrave" unicode="&#xe0;" 
d="M191 288q14 14 34 14t34 -14t14 -33.5t-14 -33.5t-34 -14t-34 14l-33 34zM181 211q14 -14 14 -34t-14 -34t-33.5 -14t-33.5 14t-14 34t14 34l33 33zM112 301q-14 14 -14 33.5t14 33.5t33.5 14t33.5 -14t14 -33.5t-14 -33.5l-33 -34zM101 223q-14 -14 -33.5 -14t-33.5 14
t-14 33.5t14 33.5t33.5 14t33.5 -14l34 -34z" />
    <glyph glyph-name="aacute" unicode="&#xe1;" 
d="M191 288q14 14 34 14t34 -14t14 -33.5t-14 -33.5t-34 -14t-34 14l-33 34zM181 211q14 -14 14 -34t-14 -34t-33.5 -14t-33.5 14t-14 34t14 34l33 33zM112 301q-14 14 -14 33.5t14 33.5t33.5 14t33.5 -14t14 -33.5t-14 -33.5l-33 -34zM101 223q-14 -14 -33.5 -14t-33.5 14
t-14 33.5t14 33.5t33.5 14t33.5 -14l34 -34z" />
    <glyph glyph-name="germandbls" unicode="&#xdf;" 
d="M191 288q14 14 34 14t34 -14t14 -33.5t-14 -33.5t-34 -14t-34 14l-33 34zM181 211q14 -14 14 -34t-14 -34t-33.5 -14t-33.5 14t-14 34t14 34l33 33zM112 301q-14 14 -14 33.5t14 33.5t33.5 14t33.5 -14t14 -33.5t-14 -33.5l-33 -34zM101 223q-14 -14 -33.5 -14t-33.5 14
t-14 33.5t14 33.5t33.5 14t33.5 -14l34 -34z" />
    <glyph glyph-name="Thorn" unicode="&#xde;" 
d="M191 288q14 14 34 14t34 -14t14 -33.5t-14 -33.5t-34 -14t-34 14l-33 34zM181 211q14 -14 14 -34t-14 -34t-33.5 -14t-33.5 14t-14 34t14 34l33 33zM112 301q-14 14 -14 33.5t14 33.5t33.5 14t33.5 -14t14 -33.5t-14 -33.5l-33 -34zM101 223q-14 -14 -33.5 -14t-33.5 14
t-14 33.5t14 33.5t33.5 14t33.5 -14l34 -34z" />
    <glyph glyph-name="Yacute" unicode="&#xdd;" 
d="M191 288q14 14 34 14t34 -14t14 -33.5t-14 -33.5t-34 -14t-34 14l-33 34zM181 211q14 -14 14 -34t-14 -34t-33.5 -14t-33.5 14t-14 34t14 34l33 33zM112 301q-14 14 -14 33.5t14 33.5t33.5 14t33.5 -14t14 -33.5t-14 -33.5l-33 -34zM101 223q-14 -14 -33.5 -14t-33.5 14
t-14 33.5t14 33.5t33.5 14t33.5 -14l34 -34z" />
    <glyph glyph-name="Udieresis" unicode="&#xdc;" 
d="M191 288q14 14 34 14t34 -14t14 -33.5t-14 -33.5t-34 -14t-34 14l-33 34zM181 211q14 -14 14 -34t-14 -34t-33.5 -14t-33.5 14t-14 34t14 34l33 33zM112 301q-14 14 -14 33.5t14 33.5t33.5 14t33.5 -14t14 -33.5t-14 -33.5l-33 -34zM101 223q-14 -14 -33.5 -14t-33.5 14
t-14 33.5t14 33.5t33.5 14t33.5 -14l34 -34z" />
    <glyph glyph-name="ograve" unicode="&#xf2;" 
d="M191 288q14 14 34 14t34 -14t14 -33.5t-14 -33.5t-34 -14t-34 14l-33 34zM181 211q14 -14 14 -34t-14 -34t-33.5 -14t-33.5 14t-14 34t14 34l33 33zM112 301q-14 14 -14 33.5t14 33.5t33.5 14t33.5 -14t14 -33.5t-14 -33.5l-33 -34zM101 223q-14 -14 -33.5 -14t-33.5 14
t-14 33.5t14 33.5t33.5 14t33.5 -14l34 -34z" />
    <glyph glyph-name="oacute" unicode="&#xf3;" 
d="M191 288q14 14 34 14t34 -14t14 -33.5t-14 -33.5t-34 -14t-34 14l-33 34zM181 211q14 -14 14 -34t-14 -34t-33.5 -14t-33.5 14t-14 34t14 34l33 33zM112 301q-14 14 -14 33.5t14 33.5t33.5 14t33.5 -14t14 -33.5t-14 -33.5l-33 -34zM101 223q-14 -14 -33.5 -14t-33.5 14
t-14 33.5t14 33.5t33.5 14t33.5 -14l34 -34z" />
    <glyph glyph-name="ocircumflex" unicode="&#xf4;" 
d="M191 288q14 14 34 14t34 -14t14 -33.5t-14 -33.5t-34 -14t-34 14l-33 34zM181 211q14 -14 14 -34t-14 -34t-33.5 -14t-33.5 14t-14 34t14 34l33 33zM112 301q-14 14 -14 33.5t14 33.5t33.5 14t33.5 -14t14 -33.5t-14 -33.5l-33 -34zM101 223q-14 -14 -33.5 -14t-33.5 14
t-14 33.5t14 33.5t33.5 14t33.5 -14l34 -34z" />
    <glyph glyph-name="otilde" unicode="&#xf5;" 
d="M191 288q14 14 34 14t34 -14t14 -33.5t-14 -33.5t-34 -14t-34 14l-33 34zM181 211q14 -14 14 -34t-14 -34t-33.5 -14t-33.5 14t-14 34t14 34l33 33zM112 301q-14 14 -14 33.5t14 33.5t33.5 14t33.5 -14t14 -33.5t-14 -33.5l-33 -34zM101 223q-14 -14 -33.5 -14t-33.5 14
t-14 33.5t14 33.5t33.5 14t33.5 -14l34 -34z" />
    <glyph glyph-name="divide" unicode="&#xf7;" 
d="M191 288q14 14 34 14t34 -14t14 -33.5t-14 -33.5t-34 -14t-34 14l-33 34zM181 211q14 -14 14 -34t-14 -34t-33.5 -14t-33.5 14t-14 34t14 34l33 33zM112 301q-14 14 -14 33.5t14 33.5t33.5 14t33.5 -14t14 -33.5t-14 -33.5l-33 -34zM101 223q-14 -14 -33.5 -14t-33.5 14
t-14 33.5t14 33.5t33.5 14t33.5 -14l34 -34z" />
    <glyph glyph-name="odieresis" unicode="&#xf6;" 
d="M191 288q14 14 34 14t34 -14t14 -33.5t-14 -33.5t-34 -14t-34 14l-33 34zM181 211q14 -14 14 -34t-14 -34t-33.5 -14t-33.5 14t-14 34t14 34l33 33zM112 301q-14 14 -14 33.5t14 33.5t33.5 14t33.5 -14t14 -33.5t-14 -33.5l-33 -34zM101 223q-14 -14 -33.5 -14t-33.5 14
t-14 33.5t14 33.5t33.5 14t33.5 -14l34 -34z" />
    <glyph glyph-name="oslash" unicode="&#xf8;" 
d="M191 288q14 14 34 14t34 -14t14 -33.5t-14 -33.5t-34 -14t-34 14l-33 34zM181 211q14 -14 14 -34t-14 -34t-33.5 -14t-33.5 14t-14 34t14 34l33 33zM112 301q-14 14 -14 33.5t14 33.5t33.5 14t33.5 -14t14 -33.5t-14 -33.5l-33 -34zM101 223q-14 -14 -33.5 -14t-33.5 14
t-14 33.5t14 33.5t33.5 14t33.5 -14l34 -34z" />
    <glyph glyph-name="ugrave" unicode="&#xf9;" 
d="M191 288q14 14 34 14t34 -14t14 -33.5t-14 -33.5t-34 -14t-34 14l-33 34zM181 211q14 -14 14 -34t-14 -34t-33.5 -14t-33.5 14t-14 34t14 34l33 33zM112 301q-14 14 -14 33.5t14 33.5t33.5 14t33.5 -14t14 -33.5t-14 -33.5l-33 -34zM101 223q-14 -14 -33.5 -14t-33.5 14
t-14 33.5t14 33.5t33.5 14t33.5 -14l34 -34z" />
    <glyph glyph-name="uacute" unicode="&#xfa;" 
d="M191 288q14 14 34 14t34 -14t14 -33.5t-14 -33.5t-34 -14t-34 14l-33 34zM181 211q14 -14 14 -34t-14 -34t-33.5 -14t-33.5 14t-14 34t14 34l33 33zM112 301q-14 14 -14 33.5t14 33.5t33.5 14t33.5 -14t14 -33.5t-14 -33.5l-33 -34zM101 223q-14 -14 -33.5 -14t-33.5 14
t-14 33.5t14 33.5t33.5 14t33.5 -14l34 -34z" />
    <glyph glyph-name="ucircumflex" unicode="&#xfb;" 
d="M191 288q14 14 34 14t34 -14t14 -33.5t-14 -33.5t-34 -14t-34 14l-33 34zM181 211q14 -14 14 -34t-14 -34t-33.5 -14t-33.5 14t-14 34t14 34l33 33zM112 301q-14 14 -14 33.5t14 33.5t33.5 14t33.5 -14t14 -33.5t-14 -33.5l-33 -34zM101 223q-14 -14 -33.5 -14t-33.5 14
t-14 33.5t14 33.5t33.5 14t33.5 -14l34 -34z" />
    <glyph glyph-name="udieresis" unicode="&#xfc;" 
d="M191 288q14 14 34 14t34 -14t14 -33.5t-14 -33.5t-34 -14t-34 14l-33 34zM181 211q14 -14 14 -34t-14 -34t-33.5 -14t-33.5 14t-14 34t14 34l33 33zM112 301q-14 14 -14 33.5t14 33.5t33.5 14t33.5 -14t14 -33.5t-14 -33.5l-33 -34zM101 223q-14 -14 -33.5 -14t-33.5 14
t-14 33.5t14 33.5t33.5 14t33.5 -14l34 -34z" />
    <glyph glyph-name="yacute" unicode="&#xfd;" 
d="M191 288q14 14 34 14t34 -14t14 -33.5t-14 -33.5t-34 -14t-34 14l-33 34zM181 211q14 -14 14 -34t-14 -34t-33.5 -14t-33.5 14t-14 34t14 34l33 33zM112 301q-14 14 -14 33.5t14 33.5t33.5 14t33.5 -14t14 -33.5t-14 -33.5l-33 -34zM101 223q-14 -14 -33.5 -14t-33.5 14
t-14 33.5t14 33.5t33.5 14t33.5 -14l34 -34z" />
    <glyph glyph-name="thorn" unicode="&#xfe;" 
d="M191 288q14 14 34 14t34 -14t14 -33.5t-14 -33.5t-34 -14t-34 14l-33 34zM181 211q14 -14 14 -34t-14 -34t-33.5 -14t-33.5 14t-14 34t14 34l33 33zM112 301q-14 14 -14 33.5t14 33.5t33.5 14t33.5 -14t14 -33.5t-14 -33.5l-33 -34zM101 223q-14 -14 -33.5 -14t-33.5 14
t-14 33.5t14 33.5t33.5 14t33.5 -14l34 -34z" />
    <glyph glyph-name="ydieresis" unicode="&#xff;" 
d="M191 288q14 14 34 14t34 -14t14 -33.5t-14 -33.5t-34 -14t-34 14l-33 34zM181 211q14 -14 14 -34t-14 -34t-33.5 -14t-33.5 14t-14 34t14 34l33 33zM112 301q-14 14 -14 33.5t14 33.5t33.5 14t33.5 -14t14 -33.5t-14 -33.5l-33 -34zM101 223q-14 -14 -33.5 -14t-33.5 14
t-14 33.5t14 33.5t33.5 14t33.5 -14l34 -34z" />
    <glyph glyph-name="Ucircumflex" unicode="&#xdb;" 
d="M191 288q14 14 34 14t34 -14t14 -33.5t-14 -33.5t-34 -14t-34 14l-33 34zM181 211q14 -14 14 -34t-14 -34t-33.5 -14t-33.5 14t-14 34t14 34l33 33zM112 301q-14 14 -14 33.5t14 33.5t33.5 14t33.5 -14t14 -33.5t-14 -33.5l-33 -34zM101 223q-14 -14 -33.5 -14t-33.5 14
t-14 33.5t14 33.5t33.5 14t33.5 -14l34 -34z" />
    <glyph glyph-name="Uacute" unicode="&#xda;" 
d="M191 288q14 14 34 14t34 -14t14 -33.5t-14 -33.5t-34 -14t-34 14l-33 34zM181 211q14 -14 14 -34t-14 -34t-33.5 -14t-33.5 14t-14 34t14 34l33 33zM112 301q-14 14 -14 33.5t14 33.5t33.5 14t33.5 -14t14 -33.5t-14 -33.5l-33 -34zM101 223q-14 -14 -33.5 -14t-33.5 14
t-14 33.5t14 33.5t33.5 14t33.5 -14l34 -34z" />
    <glyph glyph-name="Ugrave" unicode="&#xd9;" 
d="M191 288q14 14 34 14t34 -14t14 -33.5t-14 -33.5t-34 -14t-34 14l-33 34zM181 211q14 -14 14 -34t-14 -34t-33.5 -14t-33.5 14t-14 34t14 34l33 33zM112 301q-14 14 -14 33.5t14 33.5t33.5 14t33.5 -14t14 -33.5t-14 -33.5l-33 -34zM101 223q-14 -14 -33.5 -14t-33.5 14
t-14 33.5t14 33.5t33.5 14t33.5 -14l34 -34z" />
    <glyph glyph-name="Oslash" unicode="&#xd8;" 
d="M191 288q14 14 34 14t34 -14t14 -33.5t-14 -33.5t-34 -14t-34 14l-33 34zM181 211q14 -14 14 -34t-14 -34t-33.5 -14t-33.5 14t-14 34t14 34l33 33zM112 301q-14 14 -14 33.5t14 33.5t33.5 14t33.5 -14t14 -33.5t-14 -33.5l-33 -34zM101 223q-14 -14 -33.5 -14t-33.5 14
t-14 33.5t14 33.5t33.5 14t33.5 -14l34 -34z" />
    <glyph glyph-name="multiply" unicode="&#xd7;" 
d="M191 288q14 14 34 14t34 -14t14 -33.5t-14 -33.5t-34 -14t-34 14l-33 34zM181 211q14 -14 14 -34t-14 -34t-33.5 -14t-33.5 14t-14 34t14 34l33 33zM112 301q-14 14 -14 33.5t14 33.5t33.5 14t33.5 -14t14 -33.5t-14 -33.5l-33 -34zM101 223q-14 -14 -33.5 -14t-33.5 14
t-14 33.5t14 33.5t33.5 14t33.5 -14l34 -34z" />
    <glyph glyph-name="Odieresis" unicode="&#xd6;" 
d="M191 288q14 14 34 14t34 -14t14 -33.5t-14 -33.5t-34 -14t-34 14l-33 34zM181 211q14 -14 14 -34t-14 -34t-33.5 -14t-33.5 14t-14 34t14 34l33 33zM112 301q-14 14 -14 33.5t14 33.5t33.5 14t33.5 -14t14 -33.5t-14 -33.5l-33 -34zM101 223q-14 -14 -33.5 -14t-33.5 14
t-14 33.5t14 33.5t33.5 14t33.5 -14l34 -34z" />
    <glyph glyph-name="Otilde" unicode="&#xd5;" 
d="M191 288q14 14 34 14t34 -14t14 -33.5t-14 -33.5t-34 -14t-34 14l-33 34zM181 211q14 -14 14 -34t-14 -34t-33.5 -14t-33.5 14t-14 34t14 34l33 33zM112 301q-14 14 -14 33.5t14 33.5t33.5 14t33.5 -14t14 -33.5t-14 -33.5l-33 -34zM101 223q-14 -14 -33.5 -14t-33.5 14
t-14 33.5t14 33.5t33.5 14t33.5 -14l34 -34z" />
    <glyph glyph-name="Ocircumflex" unicode="&#xd4;" 
d="M191 288q14 14 34 14t34 -14t14 -33.5t-14 -33.5t-34 -14t-34 14l-33 34zM181 211q14 -14 14 -34t-14 -34t-33.5 -14t-33.5 14t-14 34t14 34l33 33zM112 301q-14 14 -14 33.5t14 33.5t33.5 14t33.5 -14t14 -33.5t-14 -33.5l-33 -34zM101 223q-14 -14 -33.5 -14t-33.5 14
t-14 33.5t14 33.5t33.5 14t33.5 -14l34 -34z" />
    <glyph glyph-name="Oacute" unicode="&#xd3;" 
d="M191 288q14 14 34 14t34 -14t14 -33.5t-14 -33.5t-34 -14t-34 14l-33 34zM181 211q14 -14 14 -34t-14 -34t-33.5 -14t-33.5 14t-14 34t14 34l33 33zM112 301q-14 14 -14 33.5t14 33.5t33.5 14t33.5 -14t14 -33.5t-14 -33.5l-33 -34zM101 223q-14 -14 -33.5 -14t-33.5 14
t-14 33.5t14 33.5t33.5 14t33.5 -14l34 -34z" />
    <glyph glyph-name="Ograve" unicode="&#xd2;" 
d="M191 288q14 14 34 14t34 -14t14 -33.5t-14 -33.5t-34 -14t-34 14l-33 34zM181 211q14 -14 14 -34t-14 -34t-33.5 -14t-33.5 14t-14 34t14 34l33 33zM112 301q-14 14 -14 33.5t14 33.5t33.5 14t33.5 -14t14 -33.5t-14 -33.5l-33 -34zM101 223q-14 -14 -33.5 -14t-33.5 14
t-14 33.5t14 33.5t33.5 14t33.5 -14l34 -34z" />
    <glyph glyph-name="Ntilde" unicode="&#xd1;" 
d="M191 288q14 14 34 14t34 -14t14 -33.5t-14 -33.5t-34 -14t-34 14l-33 34zM181 211q14 -14 14 -34t-14 -34t-33.5 -14t-33.5 14t-14 34t14 34l33 33zM112 301q-14 14 -14 33.5t14 33.5t33.5 14t33.5 -14t14 -33.5t-14 -33.5l-33 -34zM101 223q-14 -14 -33.5 -14t-33.5 14
t-14 33.5t14 33.5t33.5 14t33.5 -14l34 -34z" />
    <glyph glyph-name="Eth" unicode="&#xd0;" 
d="M191 288q14 14 34 14t34 -14t14 -33.5t-14 -33.5t-34 -14t-34 14l-33 34zM181 211q14 -14 14 -34t-14 -34t-33.5 -14t-33.5 14t-14 34t14 34l33 33zM112 301q-14 14 -14 33.5t14 33.5t33.5 14t33.5 -14t14 -33.5t-14 -33.5l-33 -34zM101 223q-14 -14 -33.5 -14t-33.5 14
t-14 33.5t14 33.5t33.5 14t33.5 -14l34 -34z" />
    <glyph glyph-name="Idieresis" unicode="&#xcf;" 
d="M191 288q14 14 34 14t34 -14t14 -33.5t-14 -33.5t-34 -14t-34 14l-33 34zM181 211q14 -14 14 -34t-14 -34t-33.5 -14t-33.5 14t-14 34t14 34l33 33zM112 301q-14 14 -14 33.5t14 33.5t33.5 14t33.5 -14t14 -33.5t-14 -33.5l-33 -34zM101 223q-14 -14 -33.5 -14t-33.5 14
t-14 33.5t14 33.5t33.5 14t33.5 -14l34 -34z" />
    <glyph glyph-name="Icircumflex" unicode="&#xce;" 
d="M191 288q14 14 34 14t34 -14t14 -33.5t-14 -33.5t-34 -14t-34 14l-33 34zM181 211q14 -14 14 -34t-14 -34t-33.5 -14t-33.5 14t-14 34t14 34l33 33zM112 301q-14 14 -14 33.5t14 33.5t33.5 14t33.5 -14t14 -33.5t-14 -33.5l-33 -34zM101 223q-14 -14 -33.5 -14t-33.5 14
t-14 33.5t14 33.5t33.5 14t33.5 -14l34 -34z" />
    <glyph glyph-name="Iacute" unicode="&#xcd;" 
d="M191 288q14 14 34 14t34 -14t14 -33.5t-14 -33.5t-34 -14t-34 14l-33 34zM181 211q14 -14 14 -34t-14 -34t-33.5 -14t-33.5 14t-14 34t14 34l33 33zM112 301q-14 14 -14 33.5t14 33.5t33.5 14t33.5 -14t14 -33.5t-14 -33.5l-33 -34zM101 223q-14 -14 -33.5 -14t-33.5 14
t-14 33.5t14 33.5t33.5 14t33.5 -14l34 -34z" />
    <glyph glyph-name="Igrave" unicode="&#xcc;" 
d="M191 288q14 14 34 14t34 -14t14 -33.5t-14 -33.5t-34 -14t-34 14l-33 34zM181 211q14 -14 14 -34t-14 -34t-33.5 -14t-33.5 14t-14 34t14 34l33 33zM112 301q-14 14 -14 33.5t14 33.5t33.5 14t33.5 -14t14 -33.5t-14 -33.5l-33 -34zM101 223q-14 -14 -33.5 -14t-33.5 14
t-14 33.5t14 33.5t33.5 14t33.5 -14l34 -34z" />
    <glyph glyph-name="Edieresis" unicode="&#xcb;" 
d="M191 288q14 14 34 14t34 -14t14 -33.5t-14 -33.5t-34 -14t-34 14l-33 34zM181 211q14 -14 14 -34t-14 -34t-33.5 -14t-33.5 14t-14 34t14 34l33 33zM112 301q-14 14 -14 33.5t14 33.5t33.5 14t33.5 -14t14 -33.5t-14 -33.5l-33 -34zM101 223q-14 -14 -33.5 -14t-33.5 14
t-14 33.5t14 33.5t33.5 14t33.5 -14l34 -34z" />
    <glyph glyph-name="Ecircumflex" unicode="&#xca;" 
d="M191 288q14 14 34 14t34 -14t14 -33.5t-14 -33.5t-34 -14t-34 14l-33 34zM181 211q14 -14 14 -34t-14 -34t-33.5 -14t-33.5 14t-14 34t14 34l33 33zM112 301q-14 14 -14 33.5t14 33.5t33.5 14t33.5 -14t14 -33.5t-14 -33.5l-33 -34zM101 223q-14 -14 -33.5 -14t-33.5 14
t-14 33.5t14 33.5t33.5 14t33.5 -14l34 -34z" />
    <glyph glyph-name="Eacute" unicode="&#xc9;" 
d="M191 288q14 14 34 14t34 -14t14 -33.5t-14 -33.5t-34 -14t-34 14l-33 34zM181 211q14 -14 14 -34t-14 -34t-33.5 -14t-33.5 14t-14 34t14 34l33 33zM112 301q-14 14 -14 33.5t14 33.5t33.5 14t33.5 -14t14 -33.5t-14 -33.5l-33 -34zM101 223q-14 -14 -33.5 -14t-33.5 14
t-14 33.5t14 33.5t33.5 14t33.5 -14l34 -34z" />
    <glyph glyph-name="Egrave" unicode="&#xc8;" 
d="M191 288q14 14 34 14t34 -14t14 -33.5t-14 -33.5t-34 -14t-34 14l-33 34zM181 211q14 -14 14 -34t-14 -34t-33.5 -14t-33.5 14t-14 34t14 34l33 33zM112 301q-14 14 -14 33.5t14 33.5t33.5 14t33.5 -14t14 -33.5t-14 -33.5l-33 -34zM101 223q-14 -14 -33.5 -14t-33.5 14
t-14 33.5t14 33.5t33.5 14t33.5 -14l34 -34z" />
    <glyph glyph-name="Ccedilla" unicode="&#xc7;" 
d="M191 288q14 14 34 14t34 -14t14 -33.5t-14 -33.5t-34 -14t-34 14l-33 34zM181 211q14 -14 14 -34t-14 -34t-33.5 -14t-33.5 14t-14 34t14 34l33 33zM112 301q-14 14 -14 33.5t14 33.5t33.5 14t33.5 -14t14 -33.5t-14 -33.5l-33 -34zM101 223q-14 -14 -33.5 -14t-33.5 14
t-14 33.5t14 33.5t33.5 14t33.5 -14l34 -34z" />
    <glyph glyph-name="AE" unicode="&#xc6;" 
d="M191 288q14 14 34 14t34 -14t14 -33.5t-14 -33.5t-34 -14t-34 14l-33 34zM181 211q14 -14 14 -34t-14 -34t-33.5 -14t-33.5 14t-14 34t14 34l33 33zM112 301q-14 14 -14 33.5t14 33.5t33.5 14t33.5 -14t14 -33.5t-14 -33.5l-33 -34zM101 223q-14 -14 -33.5 -14t-33.5 14
t-14 33.5t14 33.5t33.5 14t33.5 -14l34 -34z" />
  </font>
</defs>
</svg>
